<?xml version="1.0" encoding="UTF-8"?><svg id="Ebene_1" xmlns="http://www.w3.org/2000/svg" xmlns:xlink="http://www.w3.org/1999/xlink" viewBox="0 0 1457.65 406.47"><defs><style>.cls-1,.cls-2,.cls-3,.cls-4,.cls-5,.cls-6{fill:#1d1d1b;}.cls-1,.cls-4,.cls-6{font-family:Tinos-Regular, Tinos;}.cls-1,.cls-5{font-size:16px;}.cls-7{filter:url(#outer-glow-23);}.cls-7,.cls-8,.cls-9,.cls-10{fill:#e3e3e3;}.cls-11{filter:url(#outer-glow-11);}.cls-11,.cls-12,.cls-13,.cls-14,.cls-15,.cls-16,.cls-17,.cls-18,.cls-19,.cls-20,.cls-21,.cls-22,.cls-23,.cls-24,.cls-25{fill:#eeb6bb;}.cls-12{filter:url(#outer-glow-16);}.cls-13{filter:url(#outer-glow-14);}.cls-14{filter:url(#outer-glow-18);}.cls-15{filter:url(#outer-glow-13);}.cls-16{filter:url(#outer-glow-12);}.cls-17{filter:url(#outer-glow-15);}.cls-18{filter:url(#outer-glow-17);}.cls-19{filter:url(#outer-glow-10);}.cls-20{filter:url(#outer-glow-19);}.cls-21{filter:url(#outer-glow-22);}.cls-22{filter:url(#outer-glow-21);}.cls-23{filter:url(#outer-glow-20);}.cls-26{filter:url(#outer-glow-24);}.cls-26,.cls-27,.cls-28,.cls-29{fill:#c6c6c6;}.cls-30{fill:#bf9195;filter:url(#outer-glow-7);}.cls-27{filter:url(#outer-glow-4);}.cls-28{filter:url(#outer-glow-6);}.cls-29{filter:url(#outer-glow-2);}.cls-8{filter:url(#outer-glow-3);}.cls-9{filter:url(#outer-glow-1);}.cls-10{filter:url(#outer-glow-5);}.cls-24{filter:url(#outer-glow-9);}.cls-25{filter:url(#outer-glow-8);}.cls-31,.cls-32,.cls-33{fill:#fff;}.cls-34{fill:#55b25b;}.cls-35{stroke:#878787;stroke-dasharray:0 0 12.12 12.12;}.cls-35,.cls-32,.cls-36,.cls-33,.cls-3,.cls-37,.cls-38,.cls-39{stroke-miterlimit:10;}.cls-35,.cls-37,.cls-38,.cls-39{fill:none;}.cls-32,.cls-36,.cls-33,.cls-37,.cls-38{stroke-width:2px;}.cls-32,.cls-3,.cls-37,.cls-39{stroke:#1d1d1b;}.cls-36{fill:#ededed;}.cls-36,.cls-33,.cls-38{stroke:#000;}.cls-40{letter-spacing:-.06em;}.cls-4{font-size:15px;}.cls-5{font-family:MyriadPro-Regular, 'Myriad Pro';}.cls-6{font-size:19.31px;}</style><filter id="outer-glow-1" filterUnits="userSpaceOnUse"><feOffset dx="0" dy="0"/><feGaussianBlur result="blur" stdDeviation="5.67"/><feFlood flood-color="#1d1e1b" flood-opacity=".5"/><feComposite in2="blur" operator="in"/><feComposite in="SourceGraphic"/></filter><filter id="outer-glow-2" filterUnits="userSpaceOnUse"><feOffset dx="0" dy="0"/><feGaussianBlur result="blur-2" stdDeviation="5.67"/><feFlood flood-color="#1d1d1b" flood-opacity=".5"/><feComposite in2="blur-2" operator="in"/><feComposite in="SourceGraphic"/></filter><filter id="outer-glow-3" filterUnits="userSpaceOnUse"><feOffset dx="0" dy="0"/><feGaussianBlur result="blur-3" stdDeviation="5.67"/><feFlood flood-color="#1d1d1b" flood-opacity=".5"/><feComposite in2="blur-3" operator="in"/><feComposite in="SourceGraphic"/></filter><filter id="outer-glow-4" filterUnits="userSpaceOnUse"><feOffset dx="0" dy="0"/><feGaussianBlur result="blur-4" stdDeviation="5.67"/><feFlood flood-color="#1d1d1b" flood-opacity=".5"/><feComposite in2="blur-4" operator="in"/><feComposite in="SourceGraphic"/></filter><filter id="outer-glow-5" filterUnits="userSpaceOnUse"><feOffset dx="0" dy="0"/><feGaussianBlur result="blur-5" stdDeviation="5.67"/><feFlood flood-color="#1d1d1b" flood-opacity=".5"/><feComposite in2="blur-5" operator="in"/><feComposite in="SourceGraphic"/></filter><filter id="outer-glow-6" filterUnits="userSpaceOnUse"><feOffset dx="0" dy="0"/><feGaussianBlur result="blur-6" stdDeviation="5.67"/><feFlood flood-color="#1d1d1b" flood-opacity=".5"/><feComposite in2="blur-6" operator="in"/><feComposite in="SourceGraphic"/></filter><filter id="outer-glow-7" filterUnits="userSpaceOnUse"><feOffset dx="0" dy="0"/><feGaussianBlur result="blur-7" stdDeviation="5.67"/><feFlood flood-color="#c41720" flood-opacity=".5"/><feComposite in2="blur-7" operator="in"/><feComposite in="SourceGraphic"/></filter><filter id="outer-glow-8" filterUnits="userSpaceOnUse"><feOffset dx="0" dy="0"/><feGaussianBlur result="blur-8" stdDeviation="5.67"/><feFlood flood-color="#c41720" flood-opacity=".5"/><feComposite in2="blur-8" operator="in"/><feComposite in="SourceGraphic"/></filter><filter id="outer-glow-9" filterUnits="userSpaceOnUse"><feOffset dx="0" dy="0"/><feGaussianBlur result="blur-9" stdDeviation="5.67"/><feFlood flood-color="#c41720" flood-opacity=".5"/><feComposite in2="blur-9" operator="in"/><feComposite in="SourceGraphic"/></filter><filter id="outer-glow-10" filterUnits="userSpaceOnUse"><feOffset dx="0" dy="0"/><feGaussianBlur result="blur-10" stdDeviation="5.67"/><feFlood flood-color="#c41720" flood-opacity=".5"/><feComposite in2="blur-10" operator="in"/><feComposite in="SourceGraphic"/></filter><filter id="outer-glow-11" filterUnits="userSpaceOnUse"><feOffset dx="0" dy="0"/><feGaussianBlur result="blur-11" stdDeviation="5.67"/><feFlood flood-color="#c41720" flood-opacity=".5"/><feComposite in2="blur-11" operator="in"/><feComposite in="SourceGraphic"/></filter><filter id="outer-glow-12" filterUnits="userSpaceOnUse"><feOffset dx="0" dy="0"/><feGaussianBlur result="blur-12" stdDeviation="5.67"/><feFlood flood-color="#c41720" flood-opacity=".5"/><feComposite in2="blur-12" operator="in"/><feComposite in="SourceGraphic"/></filter><filter id="outer-glow-13" filterUnits="userSpaceOnUse"><feOffset dx="0" dy="0"/><feGaussianBlur result="blur-13" stdDeviation="5.67"/><feFlood flood-color="#c41720" flood-opacity=".5"/><feComposite in2="blur-13" operator="in"/><feComposite in="SourceGraphic"/></filter><filter id="outer-glow-14" filterUnits="userSpaceOnUse"><feOffset dx="0" dy="0"/><feGaussianBlur result="blur-14" stdDeviation="5.67"/><feFlood flood-color="#c41720" flood-opacity=".5"/><feComposite in2="blur-14" operator="in"/><feComposite in="SourceGraphic"/></filter><filter id="outer-glow-15" filterUnits="userSpaceOnUse"><feOffset dx="0" dy="0"/><feGaussianBlur result="blur-15" stdDeviation="5.67"/><feFlood flood-color="#c41720" flood-opacity=".5"/><feComposite in2="blur-15" operator="in"/><feComposite in="SourceGraphic"/></filter><filter id="outer-glow-16" filterUnits="userSpaceOnUse"><feOffset dx="0" dy="0"/><feGaussianBlur result="blur-16" stdDeviation="5.67"/><feFlood flood-color="#c41720" flood-opacity=".5"/><feComposite in2="blur-16" operator="in"/><feComposite in="SourceGraphic"/></filter><filter id="outer-glow-17" filterUnits="userSpaceOnUse"><feOffset dx="0" dy="0"/><feGaussianBlur result="blur-17" stdDeviation="5.67"/><feFlood flood-color="#c41720" flood-opacity=".5"/><feComposite in2="blur-17" operator="in"/><feComposite in="SourceGraphic"/></filter><filter id="outer-glow-18" filterUnits="userSpaceOnUse"><feOffset dx="0" dy="0"/><feGaussianBlur result="blur-18" stdDeviation="5.67"/><feFlood flood-color="#c41720" flood-opacity=".5"/><feComposite in2="blur-18" operator="in"/><feComposite in="SourceGraphic"/></filter><filter id="outer-glow-19" filterUnits="userSpaceOnUse"><feOffset dx="0" dy="0"/><feGaussianBlur result="blur-19" stdDeviation="5.67"/><feFlood flood-color="#c41720" flood-opacity=".5"/><feComposite in2="blur-19" operator="in"/><feComposite in="SourceGraphic"/></filter><filter id="outer-glow-20" filterUnits="userSpaceOnUse"><feOffset dx="0" dy="0"/><feGaussianBlur result="blur-20" stdDeviation="5.67"/><feFlood flood-color="#c41720" flood-opacity=".5"/><feComposite in2="blur-20" operator="in"/><feComposite in="SourceGraphic"/></filter><filter id="outer-glow-21" filterUnits="userSpaceOnUse"><feOffset dx="0" dy="0"/><feGaussianBlur result="blur-21" stdDeviation="5.67"/><feFlood flood-color="#c41720" flood-opacity=".5"/><feComposite in2="blur-21" operator="in"/><feComposite in="SourceGraphic"/></filter><filter id="outer-glow-22" filterUnits="userSpaceOnUse"><feOffset dx="0" dy="0"/><feGaussianBlur result="blur-22" stdDeviation="5.67"/><feFlood flood-color="#c41720" flood-opacity=".5"/><feComposite in2="blur-22" operator="in"/><feComposite in="SourceGraphic"/></filter><filter id="outer-glow-23" filterUnits="userSpaceOnUse"><feOffset dx="0" dy="0"/><feGaussianBlur result="blur-23" stdDeviation="5.67"/><feFlood flood-color="#1d1d1b" flood-opacity=".5"/><feComposite in2="blur-23" operator="in"/><feComposite in="SourceGraphic"/></filter><filter id="outer-glow-24" filterUnits="userSpaceOnUse"><feOffset dx="0" dy="0"/><feGaussianBlur result="blur-24" stdDeviation="5.67"/><feFlood flood-color="#1d1d1b" flood-opacity=".5"/><feComposite in2="blur-24" operator="in"/><feComposite in="SourceGraphic"/></filter></defs><path class="cls-35" d="M855.59,377.09h218.4c20.34,0,36.84-16.49,36.84-36.84v-126.33c0-20.34-16.49-36.84-36.84-36.84h-218.4c-20.34,0-36.84,16.49-36.84,36.84v126.33c0,20.34,16.49,36.84,36.84,36.84,0,0-20.34,0,0,0Z"/><g><rect class="cls-9" x="1206.72" y="145.9" width="159.26" height="212.48" rx="20.06" ry="20.06"/><g><path class="cls-29" d="M1206.72,338.31c0,11.08,7.76,20.06,17.34,20.06h124.59c9.57,0,17.34-8.98,17.34-20.06v-10.67h-159.26v10.67Z"/><line class="cls-3" x1="1206.72" y1="326.92" x2="1365.98" y2="326.92"/><text class="cls-1" transform="translate(1265.72 347.01)"><tspan x="0" y="0">Result</tspan></text></g><g><g><rect class="cls-33" x="1238.57" y="197.44" width="77.2" height="109.18"/><rect class="cls-33" x="1247.76" y="188.25" width="77.2" height="109.18"/><rect class="cls-33" x="1256.95" y="179.06" width="77.2" height="109.18"/><polygon class="cls-33" points="1326.5 192.5 1318.74 179.2 1334.14 179.13 1334.14 179.06 1256.95 179.06 1256.95 288.24 1334.14 288.24 1334.14 205.6 1326.5 192.5"/></g><g><g><path class="cls-2" d="M1262.48,201.01h.44l.24,1.24c.17,.21,.46,.4,.87,.57,.41,.16,.82,.25,1.22,.25,.64,0,1.14-.16,1.49-.49,.36-.33,.54-.78,.54-1.35,0-.33-.07-.6-.21-.81-.14-.21-.32-.4-.55-.54-.22-.15-.48-.27-.77-.38s-.58-.21-.89-.31c-.3-.1-.6-.22-.88-.35-.29-.13-.54-.29-.77-.49-.22-.2-.41-.44-.55-.73-.14-.29-.21-.65-.21-1.07,0-.73,.27-1.3,.82-1.72,.55-.41,1.31-.62,2.28-.62,.74,0,1.54,.1,2.41,.29v1.91h-.44l-.24-1.12c-.46-.34-1.04-.51-1.72-.51-.61,0-1.09,.12-1.43,.37-.34,.25-.52,.59-.52,1.03,0,.3,.07,.54,.21,.74,.14,.2,.32,.36,.55,.5,.23,.14,.48,.26,.77,.36,.29,.1,.58,.2,.89,.31,.3,.11,.6,.23,.89,.36,.29,.13,.55,.3,.77,.51,.23,.21,.41,.46,.55,.76,.14,.3,.21,.67,.21,1.1,0,.88-.27,1.57-.81,2.05s-1.32,.73-2.34,.73c-.49,0-.99-.04-1.48-.13-.5-.09-.94-.21-1.33-.36v-2.12Z"/><path class="cls-2" d="M1270.35,197.53l-.73-.17v-.31h1.8v.38c.21-.16,.46-.3,.78-.4,.32-.1,.65-.15,.98-.15,.82,0,1.46,.29,1.9,.85,.45,.57,.67,1.39,.67,2.45s-.25,1.93-.73,2.53c-.49,.6-1.2,.9-2.12,.9-.51,0-1-.05-1.47-.15,.03,.33,.04,.59,.04,.77v1.74l1.12,.16v.32h-3.06v-.32l.81-.16v-8.44Zm4.18,2.66c0-.88-.14-1.53-.43-1.95-.28-.43-.72-.64-1.29-.64-.53,0-.98,.08-1.33,.23v5.13c.41,.08,.85,.12,1.33,.12,1.15,0,1.72-.96,1.72-2.88Z"/><path class="cls-2" d="M1282.78,200.23c0,2.26-1,3.38-3.01,3.38-.97,0-1.7-.29-2.19-.87-.49-.58-.74-1.42-.74-2.52s.25-1.91,.74-2.49,1.24-.86,2.24-.86,1.71,.28,2.21,.84c.5,.56,.75,1.4,.75,2.5Zm-1.23,0c0-.98-.14-1.7-.43-2.14-.29-.44-.74-.66-1.35-.66s-1.03,.21-1.29,.64c-.27,.42-.4,1.15-.4,2.17s.14,1.77,.41,2.2c.27,.43,.7,.65,1.29,.65s1.05-.22,1.34-.67c.29-.45,.44-1.17,.44-2.17Z"/><path class="cls-2" d="M1285.6,203.61c-.44,0-.76-.13-.98-.39-.22-.26-.33-.62-.33-1.09v-4.5h-.84v-.31l.85-.27,.69-1.46h.43v1.46h1.47v.57h-1.47v4.38c0,.3,.07,.52,.2,.67,.13,.15,.31,.23,.53,.23,.26,0,.59-.04,.96-.11v.44c-.16,.11-.39,.2-.69,.27-.3,.07-.58,.11-.83,.11Z"/><path class="cls-2" d="M1289.72,203l1.1,.17v.31h-3.33v-.31l1.09-.17v-5.47l-.91-.17v-.31h2.04v5.95Zm.07-8.05c0,.2-.07,.37-.22,.52-.15,.15-.32,.22-.53,.22s-.37-.07-.52-.22c-.15-.15-.22-.32-.22-.52s.07-.38,.22-.53c.15-.15,.32-.22,.52-.22s.38,.07,.53,.22c.15,.15,.22,.32,.22,.53Z"/><path class="cls-2" d="M1292.63,197.63h-1.11v-.33l1.11-.27v-.45c0-.95,.19-1.68,.56-2.19,.38-.51,.9-.77,1.58-.77,.35,0,.68,.04,.98,.13v1.4h-.33l-.31-.84c-.16-.1-.34-.14-.56-.14-.29,0-.49,.13-.61,.38-.12,.26-.18,.73-.18,1.44v1.07h1.71v.57h-1.71v5.32l1.39,.23v.31h-3.47v-.31l.95-.23v-5.32Z"/><path class="cls-2" d="M1297.11,206.5c-.36,0-.71-.04-1.05-.12v-1.39h.32l.23,.66c.14,.11,.34,.16,.59,.16,.24,0,.46-.07,.66-.21s.38-.34,.55-.61c.17-.27,.38-.75,.63-1.44l-2.45-6.02-.66-.17v-.31h2.98v.31l-1.01,.18,1.74,4.49,1.68-4.5-1-.17v-.31h2.39v.31l-.67,.14-2.51,6.38c-.3,.75-.55,1.29-.77,1.62s-.46,.58-.72,.75c-.26,.17-.57,.25-.91,.25Z"/><path class="cls-2" d="M1266.09,211.11c1.69,0,2.94,.38,3.76,1.13,.82,.75,1.22,1.89,1.22,3.4s-.39,2.69-1.18,3.48c-.79,.79-1.96,1.18-3.52,1.18l-3.27-.03h-1.18v-.36l1.18-.18v-8.08l-1.18-.18v-.36h4.16Zm3.55,4.52c0-1.28-.35-2.25-1.04-2.91-.69-.66-1.68-.99-2.96-.99h-1.23v7.91c.55,.04,1.2,.05,1.95,.05,1.12,0,1.95-.33,2.48-.99,.53-.66,.8-1.68,.8-3.07Z"/><path class="cls-2" d="M1274.82,213.71c.7,0,1.22,.14,1.55,.43,.33,.29,.5,.73,.5,1.32v4.34l.8,.17v.31h-1.76l-.13-.64c-.52,.52-1.18,.78-1.99,.78-1.1,0-1.65-.64-1.65-1.91,0-.43,.08-.78,.25-1.06,.17-.28,.43-.5,.8-.64,.36-.15,.89-.23,1.59-.24l.96-.03v-1c0-.44-.08-.77-.24-.98-.16-.21-.41-.31-.75-.31-.46,0-.87,.11-1.25,.32l-.23,.8h-.38v-1.4c.74-.16,1.39-.24,1.95-.24Zm.91,3.29l-.9,.03c-.61,.02-1.02,.14-1.24,.36-.22,.21-.32,.57-.32,1.07,0,.8,.33,1.2,.98,1.2,.31,0,.58-.04,.8-.11,.22-.07,.45-.16,.68-.27v-2.28Z"/><path class="cls-2" d="M1280.13,220.41c-.44,0-.76-.13-.98-.39-.22-.26-.33-.62-.33-1.09v-4.5h-.84v-.31l.85-.27,.69-1.46h.43v1.46h1.47v.57h-1.47v4.38c0,.3,.07,.52,.2,.67,.13,.15,.31,.23,.53,.23,.26,0,.59-.04,.96-.11v.44c-.16,.11-.39,.2-.69,.27-.3,.07-.58,.11-.83,.11Z"/><path class="cls-2" d="M1284.92,213.71c.7,0,1.22,.14,1.55,.43,.33,.29,.5,.73,.5,1.32v4.34l.8,.17v.31h-1.76l-.13-.64c-.52,.52-1.18,.78-1.99,.78-1.1,0-1.65-.64-1.65-1.91,0-.43,.08-.78,.25-1.06,.17-.28,.43-.5,.8-.64,.36-.15,.89-.23,1.59-.24l.96-.03v-1c0-.44-.08-.77-.24-.98-.16-.21-.41-.31-.75-.31-.46,0-.87,.11-1.25,.32l-.23,.8h-.38v-1.4c.74-.16,1.39-.24,1.95-.24Zm.91,3.29l-.9,.03c-.61,.02-1.02,.14-1.24,.36-.22,.21-.32,.57-.32,1.07,0,.8,.33,1.2,.98,1.2,.31,0,.58-.04,.8-.11,.22-.07,.45-.16,.68-.27v-2.28Z"/></g><g><path class="cls-2" d="M1262.48,259.28h.44l.24,1.24c.17,.21,.46,.4,.87,.57,.41,.16,.82,.25,1.22,.25,.64,0,1.14-.16,1.49-.49,.36-.33,.54-.78,.54-1.35,0-.33-.07-.6-.21-.81-.14-.21-.32-.4-.55-.54-.22-.15-.48-.27-.77-.38-.29-.1-.58-.21-.89-.31-.3-.1-.6-.22-.88-.35s-.54-.29-.77-.49c-.22-.2-.41-.44-.55-.73-.14-.29-.21-.65-.21-1.07,0-.73,.27-1.3,.82-1.72s1.31-.62,2.28-.62c.74,0,1.54,.1,2.41,.29v1.91h-.44l-.24-1.12c-.46-.34-1.04-.51-1.72-.51-.61,0-1.09,.12-1.43,.37-.34,.25-.52,.59-.52,1.03,0,.3,.07,.54,.21,.74,.14,.2,.32,.36,.55,.5,.23,.14,.48,.26,.77,.36,.29,.1,.58,.2,.89,.31,.3,.11,.6,.23,.89,.36,.29,.13,.55,.31,.77,.51,.23,.21,.41,.46,.55,.76,.14,.3,.21,.67,.21,1.1,0,.88-.27,1.57-.81,2.05-.54,.49-1.32,.73-2.34,.73-.49,0-.99-.04-1.48-.13s-.94-.21-1.33-.36v-2.12Z"/><path class="cls-2" d="M1271.45,259.91c0,.78,.36,1.18,1.09,1.18,.57,0,1.09-.07,1.59-.21v-5.08l-.97-.17v-.31h2.1v5.95l.81,.17v.31h-1.87l-.05-.52c-.32,.18-.7,.33-1.12,.46-.42,.13-.78,.2-1.07,.2-1.09,0-1.64-.63-1.64-1.89v-4.2l-.82-.17v-.31h1.96v4.59Z"/><path class="cls-2" d="M1280.85,255.15v1.74h-.29l-.4-.75c-.23,0-.5,.03-.81,.09-.31,.06-.58,.14-.81,.24v4.8l1.1,.17v.31h-3.05v-.31l.81-.17v-5.47l-.81-.17v-.31h1.87l.06,.8c.27-.23,.64-.45,1.11-.66,.47-.21,.84-.31,1.11-.31h.1Z"/><path class="cls-2" d="M1284.78,261.88h-.51l-2.65-6.08-.66-.17v-.31h2.99v.31l-1.02,.18,1.87,4.44,1.79-4.45-1.02-.17v-.31h2.38v.31l-.62,.14-2.58,6.11Z"/><path class="cls-2" d="M1289.75,258.51v.12c0,.63,.07,1.12,.21,1.47,.14,.35,.35,.61,.64,.8,.29,.18,.67,.27,1.14,.27,.25,0,.54-.02,.88-.06s.62-.09,.83-.14v.38c-.22,.14-.52,.26-.89,.37-.38,.1-.76,.16-1.15,.16-1,0-1.73-.27-2.19-.81-.46-.54-.69-1.4-.69-2.59,0-1.12,.23-1.96,.7-2.51s1.14-.83,2.01-.83c1.65,0,2.47,.93,2.47,2.8v.56h-3.95Zm1.48-2.82c-.47,0-.84,.19-1.09,.57-.25,.38-.38,.95-.38,1.7h2.75c0-.82-.1-1.4-.31-1.75-.21-.35-.53-.52-.96-.52Z"/><path class="cls-2" d="M1295.55,264.77c-.36,0-.71-.04-1.05-.12v-1.39h.32l.23,.66c.14,.1,.34,.16,.59,.16,.24,0,.46-.07,.66-.21s.38-.34,.55-.61c.17-.27,.38-.75,.63-1.44l-2.45-6.02-.66-.17v-.31h2.98v.31l-1.01,.18,1.74,4.49,1.68-4.5-1-.17v-.31h2.39v.31l-.67,.14-2.51,6.38c-.3,.75-.55,1.29-.77,1.62s-.46,.58-.72,.75-.57,.25-.91,.25Z"/><path class="cls-2" d="M1266.09,269.38c1.69,0,2.94,.38,3.76,1.13,.82,.75,1.22,1.89,1.22,3.4s-.39,2.69-1.18,3.48c-.79,.79-1.96,1.18-3.52,1.18l-3.27-.03h-1.18v-.36l1.18-.18v-8.08l-1.18-.18v-.36h4.16Zm3.55,4.52c0-1.28-.35-2.25-1.04-2.91-.69-.66-1.68-.99-2.96-.99h-1.23v7.91c.55,.04,1.2,.05,1.95,.05,1.12,0,1.95-.33,2.48-.99,.53-.66,.8-1.68,.8-3.07Z"/><path class="cls-2" d="M1274.82,271.98c.7,0,1.22,.14,1.55,.43,.33,.29,.5,.73,.5,1.32v4.34l.8,.17v.31h-1.76l-.13-.64c-.52,.52-1.18,.78-1.99,.78-1.1,0-1.65-.64-1.65-1.91,0-.43,.08-.78,.25-1.06,.17-.28,.43-.5,.8-.64,.36-.15,.89-.23,1.59-.24l.96-.03v-1c0-.44-.08-.77-.24-.98-.16-.21-.41-.31-.75-.31-.46,0-.87,.11-1.25,.32l-.23,.8h-.38v-1.4c.74-.16,1.39-.24,1.95-.24Zm.91,3.29l-.9,.03c-.61,.02-1.02,.14-1.24,.36-.22,.21-.32,.57-.32,1.07,0,.8,.33,1.2,.98,1.2,.31,0,.58-.04,.8-.11,.22-.07,.45-.16,.68-.27v-2.28Z"/><path class="cls-2" d="M1280.13,278.68c-.44,0-.76-.13-.98-.39-.22-.26-.33-.62-.33-1.09v-4.5h-.84v-.31l.85-.27,.69-1.46h.43v1.46h1.47v.57h-1.47v4.38c0,.3,.07,.52,.2,.67,.13,.15,.31,.23,.53,.23,.26,0,.59-.04,.96-.11v.44c-.16,.11-.39,.2-.69,.27-.3,.07-.58,.11-.83,.11Z"/><path class="cls-2" d="M1284.92,271.98c.7,0,1.22,.14,1.55,.43,.33,.29,.5,.73,.5,1.32v4.34l.8,.17v.31h-1.76l-.13-.64c-.52,.52-1.18,.78-1.99,.78-1.1,0-1.65-.64-1.65-1.91,0-.43,.08-.78,.25-1.06,.17-.28,.43-.5,.8-.64,.36-.15,.89-.23,1.59-.24l.96-.03v-1c0-.44-.08-.77-.24-.98-.16-.21-.41-.31-.75-.31-.46,0-.87,.11-1.25,.32l-.23,.8h-.38v-1.4c.74-.16,1.39-.24,1.95-.24Zm.91,3.29l-.9,.03c-.61,.02-1.02,.14-1.24,.36-.22,.21-.32,.57-.32,1.07,0,.8,.33,1.2,.98,1.2,.31,0,.58-.04,.8-.11,.22-.07,.45-.16,.68-.27v-2.28Z"/></g><path class="cls-2" d="M1289.38,236.2v2.96h-.72v-2.96h-2.95v-.71h2.95v-2.96h.72v2.96h2.96v.71h-2.96Z"/></g></g></g><g><g><path class="cls-8" d="M360.05,17.23H215.87c-11.08,0-20.06,8.98-20.06,20.06v112.31h184.31V37.29c0-11.08-8.98-20.06-20.06-20.06Z"/><path class="cls-27" d="M195.8,159.27c0,11.08,8.98,20.06,20.06,20.06h144.19c11.08,0,20.06-8.98,20.06-20.06v-10.67H195.8v10.67Z"/><line class="cls-3" x1="195.8" y1="148.6" x2="380.12" y2="148.6"/><g><g><rect class="cls-33" x="285.84" y="59.46" width="55.61" height="78.65"/><rect class="cls-33" x="292.46" y="52.84" width="55.61" height="78.65"/><rect class="cls-33" x="299.08" y="46.22" width="55.61" height="78.65"/><polygon class="cls-33" points="349.19 55.9 343.6 46.32 354.69 46.27 354.69 46.22 299.08 46.22 299.08 124.87 354.69 124.87 354.69 65.34 349.19 55.9"/></g><g><path class="cls-2" d="M306.54,73.67h.44l.24,1.24c.17,.21,.46,.4,.87,.57,.41,.16,.82,.25,1.22,.25,.64,0,1.14-.16,1.49-.49,.36-.33,.54-.78,.54-1.35,0-.33-.07-.6-.21-.81-.14-.21-.32-.4-.55-.54-.22-.15-.48-.27-.77-.38s-.58-.21-.89-.31c-.3-.1-.6-.22-.88-.35s-.54-.29-.77-.49c-.22-.2-.41-.44-.55-.73-.14-.29-.21-.65-.21-1.07,0-.73,.27-1.3,.82-1.72s1.31-.62,2.28-.62c.74,0,1.54,.1,2.41,.29v1.91h-.44l-.24-1.12c-.46-.34-1.04-.51-1.72-.51-.61,0-1.09,.12-1.43,.37-.34,.25-.52,.59-.52,1.03,0,.3,.07,.54,.21,.74,.14,.2,.32,.36,.55,.5,.23,.14,.48,.26,.77,.36,.29,.1,.58,.2,.89,.31,.3,.11,.6,.23,.89,.36,.29,.13,.55,.31,.77,.51,.23,.21,.41,.46,.55,.76,.14,.3,.21,.67,.21,1.1,0,.88-.27,1.57-.81,2.05s-1.32,.73-2.34,.73c-.49,0-.99-.04-1.48-.13s-.94-.21-1.33-.36v-2.12Z"/><path class="cls-2" d="M314.42,70.19l-.73-.17v-.31h1.8v.38c.21-.16,.46-.3,.78-.4,.32-.1,.65-.15,.98-.15,.82,0,1.46,.28,1.9,.85,.45,.57,.67,1.39,.67,2.45s-.25,1.93-.73,2.53c-.49,.6-1.2,.9-2.12,.9-.51,0-1-.05-1.47-.15,.03,.33,.04,.59,.04,.77v1.74l1.12,.16v.32h-3.06v-.32l.81-.16v-8.44Zm4.18,2.66c0-.88-.14-1.53-.43-1.95-.28-.43-.72-.64-1.29-.64-.53,0-.98,.08-1.33,.23v5.13c.41,.08,.85,.12,1.33,.12,1.15,0,1.72-.96,1.72-2.88Z"/><path class="cls-2" d="M326.85,72.89c0,2.26-1,3.38-3.01,3.38-.97,0-1.7-.29-2.19-.87s-.74-1.42-.74-2.52,.25-1.91,.74-2.49,1.24-.86,2.24-.86,1.71,.28,2.21,.84,.75,1.4,.75,2.51Zm-1.23,0c0-.98-.14-1.7-.43-2.14s-.74-.66-1.35-.66-1.03,.21-1.29,.64c-.27,.42-.4,1.15-.4,2.17s.14,1.77,.41,2.2c.27,.43,.7,.65,1.29,.65s1.05-.22,1.34-.67,.44-1.17,.44-2.17Z"/><path class="cls-2" d="M329.66,76.27c-.44,0-.76-.13-.98-.39-.22-.26-.33-.62-.33-1.09v-4.5h-.84v-.31l.85-.27,.69-1.46h.43v1.46h1.47v.57h-1.47v4.38c0,.3,.07,.52,.2,.67,.13,.15,.31,.23,.53,.23,.26,0,.59-.04,.96-.11v.44c-.16,.11-.39,.2-.69,.27s-.58,.11-.83,.11Z"/><path class="cls-2" d="M333.79,75.66l1.1,.17v.31h-3.33v-.31l1.09-.17v-5.47l-.91-.17v-.31h2.04v5.95Zm.07-8.05c0,.2-.07,.37-.22,.52s-.32,.22-.53,.22-.37-.07-.52-.22-.22-.32-.22-.52,.07-.38,.22-.53,.32-.22,.52-.22,.38,.07,.53,.22,.22,.32,.22,.53Z"/><path class="cls-2" d="M336.7,70.29h-1.11v-.33l1.11-.27v-.45c0-.95,.19-1.68,.56-2.19,.38-.51,.9-.77,1.58-.77,.35,0,.68,.04,.98,.13v1.4h-.33l-.31-.84c-.16-.1-.34-.14-.56-.14-.29,0-.49,.13-.61,.38s-.18,.73-.18,1.44v1.07h1.71v.57h-1.71v5.32l1.39,.23v.31h-3.47v-.31l.95-.23v-5.32Z"/><path class="cls-2" d="M341.18,79.16c-.36,0-.71-.04-1.05-.12v-1.39h.32l.23,.66c.14,.1,.34,.16,.59,.16,.24,0,.46-.07,.66-.21s.38-.34,.55-.61c.17-.27,.38-.75,.63-1.44l-2.45-6.02-.66-.17v-.31h2.98v.31l-1.01,.18,1.74,4.49,1.68-4.5-1-.17v-.31h2.39v.31l-.67,.14-2.51,6.38c-.3,.75-.55,1.29-.77,1.62s-.46,.58-.72,.75-.57,.25-.91,.25Z"/><path class="cls-2" d="M347.34,73.36v-1.05h3.64v1.05h-3.64Z"/><path class="cls-2" d="M319.89,83.77c1.69,0,2.94,.38,3.76,1.13s1.22,1.89,1.22,3.4-.39,2.69-1.18,3.48c-.79,.79-1.96,1.18-3.52,1.18l-3.27-.03h-1.18v-.36l1.18-.18v-8.08l-1.18-.18v-.36h4.16Zm3.55,4.52c0-1.28-.35-2.25-1.04-2.91-.69-.66-1.68-.99-2.96-.99h-1.23v7.91c.55,.04,1.2,.05,1.95,.05,1.12,0,1.95-.33,2.48-.99,.53-.66,.8-1.68,.8-3.07Z"/><path class="cls-2" d="M328.61,86.37c.7,0,1.22,.14,1.55,.43,.33,.29,.5,.73,.5,1.32v4.34l.8,.17v.31h-1.76l-.13-.64c-.52,.52-1.18,.78-1.99,.78-1.1,0-1.65-.64-1.65-1.91,0-.43,.08-.78,.25-1.06,.17-.28,.43-.49,.8-.64s.89-.23,1.59-.24l.96-.03v-1c0-.44-.08-.77-.24-.98-.16-.21-.41-.31-.75-.31-.46,0-.87,.11-1.25,.32l-.23,.8h-.38v-1.4c.74-.16,1.39-.24,1.95-.24Zm.91,3.29l-.9,.03c-.61,.02-1.02,.14-1.24,.36-.22,.21-.32,.57-.32,1.07,0,.8,.33,1.2,.98,1.2,.31,0,.58-.04,.8-.11,.22-.07,.45-.16,.68-.27v-2.28Z"/><path class="cls-2" d="M333.93,93.07c-.44,0-.76-.13-.98-.39-.22-.26-.33-.62-.33-1.09v-4.5h-.84v-.31l.85-.27,.69-1.46h.43v1.46h1.47v.57h-1.47v4.38c0,.3,.07,.52,.2,.67,.13,.15,.31,.23,.53,.23,.26,0,.59-.04,.96-.11v.44c-.16,.11-.39,.2-.69,.27s-.58,.11-.83,.11Z"/><path class="cls-2" d="M338.72,86.37c.7,0,1.22,.14,1.55,.43,.33,.29,.5,.73,.5,1.32v4.34l.8,.17v.31h-1.76l-.13-.64c-.52,.52-1.18,.78-1.99,.78-1.1,0-1.65-.64-1.65-1.91,0-.43,.08-.78,.25-1.06,.17-.28,.43-.49,.8-.64s.89-.23,1.59-.24l.96-.03v-1c0-.44-.08-.77-.24-.98-.16-.21-.41-.31-.75-.31-.46,0-.87,.11-1.25,.32l-.23,.8h-.38v-1.4c.74-.16,1.39-.24,1.95-.24Zm.91,3.29l-.9,.03c-.61,.02-1.02,.14-1.24,.36-.22,.21-.32,.57-.32,1.07,0,.8,.33,1.2,.98,1.2,.31,0,.58-.04,.8-.11,.22-.07,.45-.16,.68-.27v-2.28Z"/></g></g><text class="cls-1" transform="translate(263.9 169.48)"><tspan x="0" y="0">Spotify</tspan></text><path class="cls-34" d="M260.93,86.6c-10.96-6.51-29.03-7.11-39.49-3.93-1.68,.51-3.46-.44-3.96-2.12-.51-1.68,.44-3.46,2.12-3.97,12.01-3.64,31.97-2.94,44.58,4.55,1.51,.9,2.01,2.85,1.11,4.36-.9,1.51-2.85,2.01-4.36,1.11h0Zm-.36,9.64c-.77,1.25-2.4,1.64-3.65,.87-9.13-5.62-23.06-7.24-33.87-3.96-1.4,.42-2.88-.37-3.31-1.77-.42-1.4,.37-2.88,1.77-3.31,12.35-3.75,27.69-1.93,38.18,4.52,1.25,.77,1.64,2.4,.87,3.64h0Zm-4.16,9.26c-.61,1-1.92,1.32-2.91,.71-7.98-4.88-18.03-5.98-29.86-3.28-1.14,.26-2.28-.45-2.54-1.59-.26-1.14,.45-2.28,1.59-2.54,12.95-2.96,24.05-1.69,33.01,3.79,1,.61,1.31,1.92,.7,2.91h0Zm-15.59-49.03c-18.77,0-33.99,15.22-33.99,33.99s15.22,33.99,33.99,33.99,33.99-15.22,33.99-33.99-15.22-33.99-33.99-33.99h0Z"/></g><g><polyline class="cls-38" points="181.45 277.08 170.04 277.08 170.04 183.59 116.36 183.59 170.04 183.59 170.04 91.71 181.45 91.71"/><polygon points="178.53 267.11 195.8 277.08 178.53 287.06 178.53 267.11"/><polygon points="178.53 101.68 195.8 91.71 178.53 81.74 178.53 101.68"/></g><g><path class="cls-36" d="M71.33,151.81c-17.55,0-31.77,14.13-31.77,31.55h0s0,.08,0,.12c.06-17.5,14.26-31.66,31.77-31.66Z"/><path class="cls-36" d="M103.12,183.36c0-17.42-14.23-31.55-31.78-31.55,17.51,0,31.71,14.17,31.78,31.66,0-.04,0-.08,0-.12h0Z"/><path class="cls-36" d="M94.45,202.34c0-10.61-8.67-19.22-19.36-19.22h-7.52c-10.69,0-19.36,8.6-19.36,19.22v2.66c-5.34-5.62-8.63-13.19-8.66-21.52,0,.04,0,.08,0,.11h0c0,17.55,14.23,31.78,31.78,31.78h0c17.55,0,31.78-14.23,31.78-31.78h0s0-.08,0-.11c-.03,8.33-3.32,15.9-8.66,21.52v-2.66Z"/><path class="cls-36" d="M62.31,170.01h0c0,4.69,3.83,8.49,8.56,8.49h.94c4.73,0,8.56-3.8,8.56-8.49h0c0-4.69-3.83-8.49-8.56-8.49h-.94c-4.73,0-8.56,3.8-8.56,8.49Z"/></g><g><path class="cls-10" d="M360.05,204.34H215.87c-11.08,0-20.06,8.98-20.06,20.06v112.31h184.31v-112.31c0-11.08-8.98-20.06-20.06-20.06Z"/><path class="cls-28" d="M195.8,344.84c0,11.08,8.98,20.06,20.06,20.06h144.19c11.08,0,20.06-8.98,20.06-20.06v-10.67H195.8v10.67Z"/><line class="cls-3" x1="195.8" y1="334.02" x2="380.12" y2="334.02"/><g><text class="cls-1" transform="translate(222.61 353.24)"><tspan x="0" y="0">Survey</tspan><tspan class="cls-40" x="45.33" y="0"> </tspan><tspan x="48.45" y="0">Applications</tspan></text><g><rect class="cls-33" x="285.84" y="243.21" width="55.61" height="78.65"/><rect class="cls-33" x="292.46" y="236.59" width="55.61" height="78.65"/><rect class="cls-33" x="299.08" y="229.97" width="55.61" height="78.65"/><polygon class="cls-33" points="349.19 239.65 343.6 230.07 354.69 230.02 354.69 229.97 299.08 229.97 299.08 308.62 354.69 308.62 354.69 249.08 349.19 239.65"/></g><g><path class="cls-2" d="M305.68,262.32h.44l.24,1.24c.17,.21,.46,.4,.87,.57,.41,.16,.82,.25,1.22,.25,.64,0,1.14-.16,1.49-.49,.36-.33,.54-.78,.54-1.35,0-.33-.07-.6-.21-.81-.14-.21-.32-.4-.55-.54-.22-.15-.48-.27-.77-.38-.29-.1-.58-.21-.89-.31-.3-.1-.6-.22-.88-.35s-.54-.29-.77-.49c-.22-.2-.41-.44-.55-.73-.14-.29-.21-.65-.21-1.07,0-.73,.27-1.3,.82-1.72s1.31-.62,2.28-.62c.74,0,1.54,.1,2.41,.29v1.91h-.44l-.24-1.12c-.46-.34-1.04-.51-1.72-.51-.61,0-1.09,.12-1.43,.37-.34,.25-.52,.59-.52,1.03,0,.3,.07,.54,.21,.74,.14,.2,.32,.36,.55,.5,.23,.14,.48,.26,.77,.36,.29,.1,.58,.2,.89,.31,.3,.11,.6,.23,.89,.36,.29,.13,.55,.31,.77,.51,.23,.21,.41,.46,.55,.76,.14,.3,.21,.67,.21,1.1,0,.88-.27,1.57-.81,2.05-.54,.49-1.32,.73-2.34,.73-.49,0-.99-.04-1.48-.13s-.94-.21-1.33-.36v-2.12Z"/><path class="cls-2" d="M314.65,262.95c0,.78,.36,1.18,1.09,1.18,.57,0,1.09-.07,1.59-.21v-5.08l-.97-.17v-.31h2.1v5.95l.81,.17v.31h-1.87l-.05-.52c-.32,.18-.7,.33-1.12,.46-.42,.13-.78,.2-1.07,.2-1.09,0-1.64-.63-1.64-1.89v-4.2l-.82-.17v-.31h1.96v4.59Z"/><path class="cls-2" d="M324.05,258.19v1.74h-.29l-.4-.75c-.23,0-.5,.03-.81,.09-.31,.06-.58,.14-.81,.24v4.8l1.1,.17v.31h-3.05v-.31l.81-.17v-5.47l-.81-.17v-.31h1.87l.06,.8c.27-.23,.64-.45,1.11-.66,.47-.21,.84-.31,1.11-.31h.1Z"/><path class="cls-2" d="M327.98,264.92h-.51l-2.65-6.08-.66-.17v-.31h2.99v.31l-1.02,.18,1.87,4.44,1.79-4.45-1.02-.17v-.31h2.38v.31l-.62,.14-2.58,6.11Z"/><path class="cls-2" d="M332.95,261.55v.12c0,.63,.07,1.12,.21,1.47,.14,.35,.35,.61,.64,.8,.29,.18,.67,.27,1.14,.27,.25,0,.54-.02,.88-.06s.62-.09,.83-.14v.38c-.22,.14-.52,.26-.89,.37-.38,.1-.76,.16-1.15,.16-1,0-1.73-.27-2.19-.81-.46-.54-.69-1.4-.69-2.59,0-1.12,.23-1.96,.7-2.51s1.14-.83,2.01-.83c1.65,0,2.47,.93,2.47,2.8v.56h-3.95Zm1.48-2.82c-.47,0-.84,.19-1.09,.57-.25,.38-.38,.95-.38,1.7h2.75c0-.82-.1-1.4-.31-1.75-.21-.35-.53-.52-.96-.52Z"/><path class="cls-2" d="M338.75,267.81c-.36,0-.71-.04-1.05-.12v-1.39h.32l.23,.66c.14,.1,.34,.16,.59,.16,.24,0,.46-.07,.66-.21s.38-.34,.55-.61c.17-.27,.38-.75,.63-1.44l-2.45-6.02-.66-.17v-.31h2.98v.31l-1.01,.18,1.74,4.49,1.68-4.5-1-.17v-.31h2.39v.31l-.67,.14-2.51,6.38c-.3,.75-.55,1.29-.77,1.62s-.46,.58-.72,.75-.57,.25-.91,.25Z"/><path class="cls-2" d="M344.91,262.01v-1.05h3.64v1.05h-3.64Z"/><path class="cls-2" d="M318.24,272.42c1.69,0,2.94,.38,3.76,1.13,.82,.75,1.22,1.89,1.22,3.4s-.39,2.69-1.18,3.48c-.79,.79-1.96,1.18-3.52,1.18l-3.27-.03h-1.18v-.36l1.18-.18v-8.08l-1.18-.18v-.36h4.16Zm3.55,4.52c0-1.28-.35-2.25-1.04-2.91-.69-.66-1.68-.99-2.96-.99h-1.23v7.91c.55,.04,1.2,.05,1.95,.05,1.12,0,1.95-.33,2.48-.99,.53-.66,.8-1.68,.8-3.07Z"/><path class="cls-2" d="M326.96,275.02c.7,0,1.22,.14,1.55,.43,.33,.29,.5,.73,.5,1.32v4.34l.8,.17v.31h-1.76l-.13-.64c-.52,.52-1.18,.78-1.99,.78-1.1,0-1.65-.64-1.65-1.91,0-.43,.08-.78,.25-1.06,.17-.28,.43-.5,.8-.64,.36-.15,.89-.23,1.59-.24l.96-.03v-1c0-.44-.08-.77-.24-.98-.16-.21-.41-.31-.75-.31-.46,0-.87,.11-1.25,.32l-.23,.8h-.38v-1.4c.74-.16,1.39-.24,1.95-.24Zm.91,3.29l-.9,.03c-.61,.02-1.02,.14-1.24,.36-.22,.21-.32,.57-.32,1.07,0,.8,.33,1.2,.98,1.2,.31,0,.58-.04,.8-.11,.22-.07,.45-.16,.68-.27v-2.28Z"/><path class="cls-2" d="M332.28,281.72c-.44,0-.76-.13-.98-.39-.22-.26-.33-.62-.33-1.09v-4.5h-.84v-.31l.85-.27,.69-1.46h.43v1.46h1.47v.57h-1.47v4.38c0,.3,.07,.52,.2,.67,.13,.15,.31,.23,.53,.23,.26,0,.59-.04,.96-.11v.44c-.16,.11-.39,.2-.69,.27-.3,.07-.58,.11-.83,.11Z"/><path class="cls-2" d="M337.07,275.02c.7,0,1.22,.14,1.55,.43,.33,.29,.5,.73,.5,1.32v4.34l.8,.17v.31h-1.76l-.13-.64c-.52,.52-1.18,.78-1.99,.78-1.1,0-1.65-.64-1.65-1.91,0-.43,.08-.78,.25-1.06,.17-.28,.43-.5,.8-.64,.36-.15,.89-.23,1.59-.24l.96-.03v-1c0-.44-.08-.77-.24-.98-.16-.21-.41-.31-.75-.31-.46,0-.87,.11-1.25,.32l-.23,.8h-.38v-1.4c.74-.16,1.39-.24,1.95-.24Zm.91,3.29l-.9,.03c-.61,.02-1.02,.14-1.24,.36-.22,.21-.32,.57-.32,1.07,0,.8,.33,1.2,.98,1.2,.31,0,.58-.04,.8-.11,.22-.07,.45-.16,.68-.27v-2.28Z"/></g></g></g></g><g><polyline class="cls-37" points="394.47 92.17 630.12 92.17 630.12 205.03"/><polygon class="cls-2" points="397.39 102.14 380.12 92.17 397.39 82.19 397.39 102.14"/></g><g><path class="cls-30" d="M514.3,344.37c0,11.08,8.98,20.06,20.06,20.06h184.14c11.08,0,20.06-8.98,20.06-20.06v-10.75h-224.27v10.75Z"/><g><path class="cls-25" d="M528.4,364c1.12,.35,2.28,.58,3.48,.73-1.19-.15-2.36-.38-3.48-.73Z"/><path class="cls-24" d="M524.8,362.48c.17,.09,.35,.16,.52,.25-.17-.09-.35-.16-.52-.25Z"/><path class="cls-19" d="M515.2,350.81s.03,.09,.05,.13c-.01-.04-.03-.09-.05-.13Z"/><polygon class="cls-11" points="514.3 344.85 514.3 344.84 514.3 344.84 514.3 344.85"/><path class="cls-16" d="M514.71,348.88s.03,.1,.04,.14c-.01-.05-.03-.1-.04-.14Z"/><path class="cls-15" d="M516.72,354.4s.02,.04,.03,.06c-.01-.02-.02-.04-.03-.06Z"/><path class="cls-13" d="M523.14,361.48c.48,.33,.98,.62,1.5,.91-.51-.28-1.01-.58-1.5-.91Z"/><path class="cls-17" d="M514.3,344.85c0,1.38,.14,2.73,.41,4.03-.27-1.3-.41-2.65-.41-4.03Z"/><path class="cls-12" d="M515.25,350.94c.39,1.21,.88,2.37,1.47,3.46-.6-1.1-1.09-2.26-1.47-3.46Z"/><path class="cls-18" d="M514.74,349.03c.13,.6,.28,1.2,.46,1.78-.18-.58-.33-1.18-.46-1.78Z"/><path class="cls-14" d="M718.5,205.03h-184.14c-11.08,0-20.06,8.98-20.06,20.06v119.75h0v-10.75h224.27v-109c0-11.08-8.98-20.06-20.06-20.06Z"/><path class="cls-20" d="M523.14,361.48c-2.65-1.79-4.85-4.2-6.39-7.02,1.54,2.82,3.74,5.23,6.39,7.02Z"/><path class="cls-23" d="M524.64,362.38c.05,.03,.1,.07,.16,.1-.05-.03-.1-.07-.16-.1Z"/><path class="cls-22" d="M525.32,362.73c.99,.5,2.01,.94,3.08,1.27-1.07-.33-2.09-.77-3.08-1.27Z"/><path class="cls-21" d="M531.87,364.73c.82,.1,1.64,.17,2.49,.17-.84,0-1.67-.07-2.49-.17Z"/></g><line class="cls-3" x1="514.3" y1="334.09" x2="738.57" y2="334.09"/><text class="cls-1" transform="translate(597.2 353.24)"><tspan x="0" y="0">Spotivey</tspan></text><g><g><rect class="cls-32" x="552.04" y="226.96" width="153.36" height="89.3" rx="7.85" ry="7.85"/><g><line class="cls-37" x1="557.15" y1="251.03" x2="700.29" y2="251.03"/><g><circle class="cls-37" cx="681.58" cy="241.89" r="4.27"/><circle class="cls-37" cx="696.02" cy="241.89" r="4.27"/><circle class="cls-37" cx="667.13" cy="241.89" r="4.27"/></g></g><g><rect class="cls-39" x="570.34" y="258.48" width="30.67" height="20.45" rx="5.01" ry="5.01"/><rect class="cls-39" x="570.34" y="289.15" width="30.67" height="20.45" rx="5.01" ry="5.01"/><rect class="cls-39" x="613.39" y="258.48" width="30.67" height="20.45" rx="5.01" ry="5.01"/><rect class="cls-39" x="656.44" y="258.48" width="30.67" height="20.45" rx="5.01" ry="5.01"/><rect class="cls-39" x="613.39" y="289.15" width="30.67" height="20.45" rx="5.01" ry="5.01"/><rect class="cls-39" x="656.44" y="289.15" width="30.67" height="20.45" rx="5.01" ry="5.01"/></g></g><g><rect class="cls-2" x="543.08" y="316.26" width="171.28" height="8.61" rx="3.13" ry="3.13"/><rect class="cls-31" x="622.59" y="319.48" width="12.27" height="2.17" rx="1.03" ry="1.03"/></g></g></g><g><line class="cls-37" x1="380.12" y1="275.91" x2="499.95" y2="275.91"/><polygon class="cls-2" points="497.03 285.89 514.3 275.91 497.03 265.94 497.03 285.89"/></g><text class="cls-6" transform="translate(431.79 266.83) scale(.83 1)"><tspan x="0" y="0">ID</tspan></text><g><line class="cls-37" x1="738.57" y1="275.92" x2="858.4" y2="275.92"/><polygon class="cls-2" points="855.48 285.89 872.75 275.92 855.48 265.94 855.48 285.89"/></g><text class="cls-1" transform="translate(797.22 246.16)"><tspan x="0" y="0">ID</tspan><tspan x="-36.88" y="19.2">Spotify - Data</tspan></text><g><path class="cls-7" d="M1039.7,196.8h-144.19c-11.08,0-20.06,8.98-20.06,20.06v112.31h184.31v-112.31c0-11.08-8.98-20.06-20.06-20.06Z"/><path class="cls-26" d="M875.45,337.3c0,11.08,8.98,20.06,20.06,20.06h144.19c11.08,0,20.06-8.98,20.06-20.06v-10.67h-184.31v10.67Z"/><text class="cls-1" transform="translate(902.26 347.01)"><tspan x="0" y="0">Survey</tspan><tspan class="cls-40" x="45.33" y="0"> </tspan><tspan x="48.45" y="0">Applications</tspan></text><line class="cls-3" x1="875.45" y1="326.48" x2="1059.76" y2="326.48"/><g><g><rect class="cls-33" x="965.49" y="235.67" width="55.61" height="78.65"/><rect class="cls-33" x="972.11" y="229.05" width="55.61" height="78.65"/><rect class="cls-33" x="978.73" y="222.43" width="55.61" height="78.65"/><polygon class="cls-33" points="1028.84 232.11 1023.25 222.53 1034.34 222.48 1034.34 222.43 978.73 222.43 978.73 301.08 1034.34 301.08 1034.34 241.55 1028.84 232.11"/></g><g><path class="cls-2" d="M985.32,254.78h.44l.24,1.24c.17,.21,.46,.4,.87,.57,.41,.16,.82,.25,1.22,.25,.64,0,1.14-.16,1.49-.49,.36-.33,.54-.78,.54-1.35,0-.33-.07-.6-.21-.81-.14-.21-.32-.4-.55-.54-.22-.15-.48-.27-.77-.38-.29-.1-.58-.21-.89-.31-.3-.1-.6-.22-.88-.35s-.54-.29-.77-.49c-.22-.2-.41-.44-.55-.73-.14-.29-.21-.65-.21-1.07,0-.73,.27-1.3,.82-1.72s1.31-.62,2.28-.62c.74,0,1.54,.1,2.41,.29v1.91h-.44l-.24-1.12c-.46-.34-1.04-.51-1.72-.51-.61,0-1.09,.12-1.43,.37-.34,.25-.52,.59-.52,1.03,0,.3,.07,.54,.21,.74,.14,.2,.32,.36,.55,.5,.23,.14,.48,.26,.77,.36,.29,.1,.58,.2,.89,.31,.3,.11,.6,.23,.89,.36,.29,.13,.55,.31,.77,.51,.23,.21,.41,.46,.55,.76,.14,.3,.21,.67,.21,1.1,0,.88-.27,1.57-.81,2.05-.54,.49-1.32,.73-2.34,.73-.49,0-.99-.04-1.48-.13s-.94-.21-1.33-.36v-2.12Z"/><path class="cls-2" d="M994.3,255.42c0,.78,.36,1.18,1.09,1.18,.57,0,1.09-.07,1.59-.21v-5.08l-.97-.17v-.31h2.1v5.95l.81,.17v.31h-1.87l-.05-.52c-.32,.18-.7,.33-1.12,.46-.42,.13-.78,.2-1.07,.2-1.09,0-1.64-.63-1.64-1.89v-4.2l-.82-.17v-.31h1.96v4.59Z"/><path class="cls-2" d="M1003.7,250.65v1.74h-.29l-.4-.75c-.23,0-.5,.03-.81,.09-.31,.06-.58,.14-.81,.24v4.8l1.1,.17v.31h-3.05v-.31l.81-.17v-5.47l-.81-.17v-.31h1.87l.06,.8c.27-.23,.64-.45,1.11-.66,.47-.21,.84-.31,1.11-.31h.1Z"/><path class="cls-2" d="M1007.63,257.38h-.51l-2.65-6.08-.66-.17v-.31h2.99v.31l-1.02,.18,1.87,4.44,1.79-4.45-1.02-.17v-.31h2.38v.31l-.62,.14-2.58,6.11Z"/><path class="cls-2" d="M1012.6,254.01v.12c0,.63,.07,1.12,.21,1.47,.14,.35,.35,.61,.64,.8,.29,.18,.67,.27,1.14,.27,.25,0,.54-.02,.88-.06s.62-.09,.83-.14v.38c-.22,.14-.52,.26-.89,.37-.38,.1-.76,.16-1.15,.16-1,0-1.73-.27-2.19-.81-.46-.54-.69-1.4-.69-2.59,0-1.12,.23-1.96,.7-2.51s1.14-.83,2.01-.83c1.65,0,2.47,.93,2.47,2.8v.56h-3.95Zm1.48-2.82c-.47,0-.84,.19-1.09,.57-.25,.38-.38,.95-.38,1.7h2.75c0-.82-.1-1.4-.31-1.75-.21-.35-.53-.52-.96-.52Z"/><path class="cls-2" d="M1018.39,260.27c-.36,0-.71-.04-1.05-.12v-1.39h.32l.23,.66c.14,.1,.34,.16,.59,.16,.24,0,.46-.07,.66-.21s.38-.34,.55-.61c.17-.27,.38-.75,.63-1.44l-2.45-6.02-.66-.17v-.31h2.98v.31l-1.01,.18,1.74,4.49,1.68-4.5-1-.17v-.31h2.39v.31l-.67,.14-2.51,6.38c-.3,.75-.55,1.29-.77,1.62s-.46,.58-.72,.75-.57,.25-.91,.25Z"/><path class="cls-2" d="M1024.55,254.47v-1.05h3.64v1.05h-3.64Z"/><path class="cls-2" d="M997.89,264.88c1.69,0,2.94,.38,3.76,1.13,.82,.75,1.22,1.89,1.22,3.4s-.39,2.69-1.18,3.48c-.79,.79-1.96,1.18-3.52,1.18l-3.27-.03h-1.18v-.36l1.18-.18v-8.08l-1.18-.18v-.36h4.16Zm3.55,4.52c0-1.28-.35-2.25-1.04-2.91-.69-.66-1.68-.99-2.96-.99h-1.23v7.91c.55,.04,1.2,.05,1.95,.05,1.12,0,1.95-.33,2.48-.99,.53-.66,.8-1.68,.8-3.07Z"/><path class="cls-2" d="M1006.61,267.48c.7,0,1.22,.14,1.55,.43,.33,.29,.5,.73,.5,1.32v4.34l.8,.17v.31h-1.76l-.13-.64c-.52,.52-1.18,.78-1.99,.78-1.1,0-1.65-.64-1.65-1.91,0-.43,.08-.78,.25-1.06,.17-.28,.43-.5,.8-.64,.36-.15,.89-.23,1.59-.24l.96-.03v-1c0-.44-.08-.77-.24-.98-.16-.21-.41-.31-.75-.31-.46,0-.87,.11-1.25,.32l-.23,.8h-.38v-1.4c.74-.16,1.39-.24,1.95-.24Zm.91,3.29l-.9,.03c-.61,.02-1.02,.14-1.24,.36-.22,.21-.32,.57-.32,1.07,0,.8,.33,1.2,.98,1.2,.31,0,.58-.04,.8-.11,.22-.07,.45-.16,.68-.27v-2.28Z"/><path class="cls-2" d="M1011.93,274.18c-.44,0-.76-.13-.98-.39-.22-.26-.33-.62-.33-1.09v-4.5h-.84v-.31l.85-.27,.69-1.46h.43v1.46h1.47v.57h-1.47v4.38c0,.3,.07,.52,.2,.67,.13,.15,.31,.23,.53,.23,.26,0,.59-.04,.96-.11v.44c-.16,.11-.39,.2-.69,.27-.3,.07-.58,.11-.83,.11Z"/><path class="cls-2" d="M1016.71,267.48c.7,0,1.22,.14,1.55,.43,.33,.29,.5,.73,.5,1.32v4.34l.8,.17v.31h-1.76l-.13-.64c-.52,.52-1.18,.78-1.99,.78-1.1,0-1.65-.64-1.65-1.91,0-.43,.08-.78,.25-1.06,.17-.28,.43-.5,.8-.64,.36-.15,.89-.23,1.59-.24l.96-.03v-1c0-.44-.08-.77-.24-.98-.16-.21-.41-.31-.75-.31-.46,0-.87,.11-1.25,.32l-.23,.8h-.38v-1.4c.74-.16,1.39-.24,1.95-.24Zm.91,3.29l-.9,.03c-.61,.02-1.02,.14-1.24,.36-.22,.21-.32,.57-.32,1.07,0,.8,.33,1.2,.98,1.2,.31,0,.58-.04,.8-.11,.22-.07,.45-.16,.68-.27v-2.28Z"/></g></g></g><g><polyline class="cls-37" points="1059.76 275.92 1131.31 275.92 1131.31 275.92 1190.96 275.92"/><polygon class="cls-2" points="1188.04 285.89 1205.31 275.92 1188.04 265.94 1188.04 285.89"/></g><text class="cls-5" transform="translate(91.68 152.44)"><tspan x="0" y="0">*</tspan></text><line class="cls-3" y1="379.49" x2="1457.65" y2="379.49"/><text class="cls-1" transform="translate(34.04 401.62)"><tspan x="0" y="0">* Participant with unique ID</tspan></text><text class="cls-4" transform="translate(941.68 168.04)"><tspan x="0" y="0">optional</tspan></text></svg>