<?xml version="1.0" encoding="UTF-8"?><svg id="Ebene_1" xmlns="http://www.w3.org/2000/svg" viewBox="0 0 509.52 79.66"><defs><style>.cls-1{fill:#1b1f23;}.cls-2{fill:none;stroke:#c40d1e;stroke-miterlimit:10;stroke-width:7px;}</style></defs><path class="cls-1" d="M47.92,28.14c-2.81-1.94-7.95-4.85-13.19-4.85-1.26,0-3.2,.19-4.46,1.16-.87,.68-1.16,1.36-1.16,2.33,0,1.36,.19,2.62,3.78,3.4l7.47,1.65c5.72,1.26,9.12,3.59,11.06,5.53,4.07,3.98,4.95,8.92,4.95,12.8,0,5.53-1.46,10.67-5.82,15.23-3.69,3.78-10.67,8.25-22.79,8.25-9.89,0-16.49-2.81-22.02-5.04l-2.13-.87,7.08-18.24,2.52,1.94c2.43,1.84,7.37,4.75,13.1,4.75,3.2,0,4.56-.78,5.04-1.16,1.07-.87,1.26-1.94,1.26-2.91,0-.58-.1-1.55-.78-2.23-.78-.78-2.04-1.07-4.46-1.55l-5.72-1.07c-3.69-.68-7.66-1.84-11.25-5.53-3.3-3.4-4.66-7.27-4.66-11.93,0-6.01,2.04-11.15,6.3-15.42,4.95-5.04,12.22-8.34,22.5-8.34,5.14,0,11.83,.87,19.69,5.63l-6.31,16.49Z"/><path class="cls-1" d="M66.44,72.18V7.48h31.04c10.28,0,16.2,4.17,18.92,6.79,5.33,5.24,6.6,11.83,6.6,16.98s-1.16,11.45-6.4,16.2c-5.14,4.66-10.96,5.24-15.91,5.24h-11.35v19.5h-22.89Zm22.89-35.79h3.98c1.16,0,3.59-.1,5.24-1.75,.87-.78,1.55-2.04,1.55-3.98,0-2.04-.87-3.3-1.75-3.98-1.07-.87-3.01-1.46-4.75-1.46h-4.27v11.16Z"/><path class="cls-1" d="M190.99,63.26c-5.53,5.63-14.55,10.38-26.87,10.38s-21.34-4.75-26.87-10.38c-5.04-5.14-9.02-13.1-9.02-23.47s3.98-18.24,9.02-23.38c5.53-5.63,14.55-10.38,26.87-10.38s21.34,4.75,26.87,10.38c5.04,5.14,9.02,13.09,9.02,23.38s-3.98,18.33-9.02,23.47Zm-35.31-33.08c-2.33,2.42-3.69,6.21-3.69,9.7,0,3.69,1.36,7.28,3.69,9.6,1.94,1.94,4.85,3.3,8.44,3.3s6.5-1.36,8.44-3.3c2.13-2.13,3.69-5.53,3.69-9.6s-1.36-7.47-3.69-9.7c-1.75-1.75-4.56-3.3-8.44-3.3-4.17,0-6.89,1.65-8.44,3.3Z"/><path class="cls-1" d="M218.44,72.18V27.95l-13.19,.58V7.48h49.47V28.53l-13.19-.58v44.23h-23.09Z"/><path class="cls-1" d="M261.9,72.18V7.48h23.47V72.18h-23.47Z"/><path class="cls-1" d="M291.87,7.48h24.54l9.02,30.46c.78,2.52,1.26,6.31,1.45,8.63h.58c.1-2.62,.58-5.92,1.36-8.63l8.83-30.46h24.54l-25.03,64.7h-20.18L291.87,7.48Z"/><path class="cls-1" d="M441.71,7.48h26.58l5.53,11.83c.39,.87,1.16,2.72,1.75,5.14h.68c.48-2.72,1.16-3.69,1.75-5.14l5.04-11.83h26.48l-22.12,36.86v27.84h-23.18v-27.84l-22.5-36.86Z"/><g><path class="cls-2" d="M368.69,22.09s12.33-17.12,34.25,0,35.86,0,35.86,0"/><path class="cls-2" d="M368.69,39.83s12.33-17.12,34.25,0,35.86,0,35.86,0"/><path class="cls-2" d="M368.69,57.57s12.33-17.12,34.25,0,35.86,0,35.86,0"/></g></svg>