<?xml version="1.0" encoding="utf-8"?>
<!-- Generator: Adobe Illustrator 27.0.0, SVG Export Plug-In . SVG Version: 6.00 Build 0)  -->
<svg version="1.1" id="Ebene_1" xmlns="http://www.w3.org/2000/svg" xmlns:xlink="http://www.w3.org/1999/xlink" x="0px" y="0px"
	 viewBox="0 0 2834.6 1133.9" style="enable-background:new 0 0 2834.6 1133.9;" xml:space="preserve">
<style type="text/css">
	.st0{fill:#1B1F23;stroke:#1B1F23;stroke-miterlimit:10;}
	.st1{fill:#C40D1E;stroke:#1B1F23;stroke-miterlimit:10;}
	.st2{fill:url(#SVGID_1_);}
	.st3{fill:url(#SVGID_00000013904952477965202400000002440288740214415272_);}
	.st4{fill:url(#SVGID_00000013914952577506913410000013882555764692095157_);}
	.st5{fill:url(#SVGID_00000047749380292580228960000002932258166809074320_);}
	.st6{fill:url(#SVGID_00000018949403642978336320000018301185879355869835_);}
	.st7{display:none;}
	.st8{display:inline;fill:#C40D1E;stroke:#1B1F23;stroke-miterlimit:10;}
	.st9{display:inline;fill:#C40D1E;stroke:#C40D1E;stroke-width:0.25;stroke-miterlimit:10;}
	.st10{display:none;fill:#C40D1E;stroke:#1B1F23;stroke-miterlimit:10;}
	.st11{fill:url(#SVGID_00000023971254770156501680000002873558163690650789_);}
	.st12{fill:url(#SVGID_00000158711037699846668180000005841443843123740342_);}
	.st13{fill:url(#SVGID_00000065034932353435467260000002666856798334896267_);}
	.st14{fill:url(#SVGID_00000096046769000027099360000006992741629806652586_);}
	.st15{fill:url(#SVGID_00000160912879980932160140000001642033367812237718_);}
	.st16{fill:url(#SVGID_00000005225894000954802740000001107936560441330064_);}
	.st17{fill:url(#SVGID_00000053535324363349681210000011280096459481794478_);}
	.st18{fill:none;}
	.st19{fill:none;stroke:#1B1F23;stroke-miterlimit:10;}
	.st20{font-family:'Coranto2Headline-Bold';}
	.st21{font-size:500px;}
</style>
<g>
	<g>
		<g transform="translate(0.000000,1280.000000) scale(0.100000,-0.100000)">
			<path class="st0" d="M2696.5,12400c-108.1-109.3-231.3-240.1-274.6-291.4c-277.4-330.7-418.5-675.4-481.5-1181.6
				c-16.9-130.8-22.6-598.8-10.3-764.1c18.8-241.9,63-536.2,145.8-968.7c5.6-25.2-3.8-38.3-79.9-126.1
				c-226.6-260.6-534.1-647.3-654.5-826.7c-316.9-470.8-511.6-973.3-583-1503.9c-19.7-153.2-22.6-568.9-4.7-714.6
				c60.2-474.5,237-929.4,486.2-1251.7c269.9-349.4,714.7-653.9,1114.4-764.1c142-40.2,360.2-65.4,566.1-68.2l92.2-0.9l9.4-34.6
				c16.9-62.6,30.1-347.5,23.5-505.4c-16.9-415.7-79.9-652-230.4-873.4c-160.8-235.4-398.7-411.9-651.7-484.8
				c-259.5-74.7-512.5-41.1-642.3,85.9c-66.8,65.4-71.5,80.3-63,191.5l7.5,95.3h42.3c23.5-0.9,95.9-6.5,161.7-13.1
				c204.1-20.6,325.4,13.1,428.8,118.6c97.8,99,127.9,192.4,122.3,380.2l-2.8,112.1l-45.1,92.5c-38.6,76.6-58.3,104.6-122.3,168.1
				c-130.7,129.8-237.9,170-429.8,161.6c-245.4-10.3-402.5-107.4-499.3-310.1c-89.3-186.8-113.8-465.2-61.1-709.9
				c33.9-156.9,104.4-285.8,228.5-416.6c160.8-169.1,345.1-259.7,632.9-312.9c272.7-49.5,467.4-14.9,710.9,128
				c214.4,126.1,395.9,312,531.3,545.5c174.9,302.7,252,681,237.9,1172.3c-2.8,108.4,0,221.4,7.5,303.6l12.2,130.8l32.9,15.9
				c17.9,9.3,92.2,40.2,164.6,69.1c302.8,120.5,522.9,243.8,677.1,376.4c288.7,248.5,526.6,716.5,578.3,1134
				c15,121.4,12.2,422.2-4.7,553c-69.6,535.2-351.7,1012.6-759.8,1283.5c-98.7,66.3-284,153.2-387.4,183.1
				c-142.9,41.1-254.8,54.2-413.8,47.6c-119.4-3.7-204.1-14-500.3-58.8c-27.3-4.7-31-1.9-35.7,21.5c-5.6,28-37.6,154.1-99.7,386.7
				c-28.2,109.3-35.7,156-38.6,239.1c-2.8,102.8-2.8,102.8,25.4,136.4c16,18.7,98.7,114.9,185.3,213.9
				c456.1,525,653.6,829.5,802.2,1236.8c123.2,339.1,171.2,672.6,147.6,1039.7c-34.8,557.7-210.6,1045.3-502.2,1389
				c-102.5,120.5-363.9,369-389.3,369C2897.8,12599,2804.7,12509.3,2696.5,12400z M3244.8,11546.2c17.9-23.4,68.6-167.2,96.9-278.4
				c71.5-277.4,57.4-527.8-43.3-768.8c-80.9-193.4-235.1-401.7-571.8-767.8c-224.8-245.7-316-339.1-321.6-333.5
				c-3.8,2.8-9.4,51.4-14.1,106.5c-3.8,55.1-14.1,151.3-22.6,213c-23.5,175.6-29.2,534.3-11.3,686.6
				c33.9,286.8,137.3,539.9,311.3,759.4c111.9,142.9,225.7,241,419.4,359.6c68.6,42,83.7,47.6,112.8,43
				C3218.4,11563,3238.2,11553.7,3244.8,11546.2z M2379.6,7876.1c23.5-69.1,106.3-361.5,106.3-376.4c0-4.7-48-47.6-105.3-95.3
				c-143.9-117.7-312.2-286.8-372.4-375.5c-194.7-282.1-254.8-720.2-146.7-1064c66.8-210.2,240.7-456.8,404.4-573.5
				c32-22.4,70.5-43.9,85.6-46.7c38.6-7.5,75.2,25.2,96.9,88.7c15,44.8,15,54.2,3.8,87.8c-16,44.8-79.9,141.1-160.8,241.9
				c-73.4,92.5-111,163.5-135.4,257.8c-45.1,175.6,4.7,450.2,111,617.4c66.8,104.6,221,229.8,289.6,236.3l37.6,2.8l35.7-107.4
				c94-285.8,237.9-946.3,298.1-1366.6c39.5-281.2,71.5-735.1,63.9-912.6c-2.8-64.5-4.7-70.1-26.3-75.7c-13.2-3.7-126-6.5-250.1-7.5
				c-257.7-0.9-337.6,8.4-486.2,58.8c-320.7,109.3-687.4,491.3-852.9,891.1c-87.5,209.2-119.4,378.3-109.1,581
				c17.9,392.3,132.6,765,327.3,1067.7c27.3,42,158.9,216.7,292.5,387.7c132.6,171.9,278.4,361.5,321.6,422.2
				c74.3,102.8,109.1,134.5,140.1,127C2353.3,7942.4,2367.4,7912.5,2379.6,7876.1z M3318.1,6980.3c110-19.6,232.3-60.7,332.9-112.1
				c272.7-140.1,464.6-436.2,533.2-826.7c21.6-122.4,21.6-348.4,0-471.7c-36.7-202.7-126-436.2-223.8-585.7
				c-117.5-178.4-252-287.7-560.5-454c-58.3-31.8-110-57.9-114.7-57.9c-5.6,0-9.4,44.8-9.4,106.5c0,124.2-30.1,511.9-56.4,736.1
				c-39.5,335.3-99.7,670.7-212.5,1193.8c-44.2,201.8-52.7,256.9-55.5,358.7c-1.9,66.3-0.9,125.2,1.9,129.8
				C2960.8,7010.2,3213.7,6998,3318.1,6980.3z"/>
		</g>
		<g transform="translate(0.000000,1280.000000) scale(0.100000,-0.100000)">
			<path class="st1" d="M2772.1,8013.1c-25.1,63.3-49.7,132.2-72.9,206.7c-14,44.9-26.4,88.6-37.4,130.8
				c-117.5,487-129.1,533.3-129.1,533.3c-15.9,63.9-28.9,116.3-40.1,162.3c-44.7,182.6-66.8,242.9-85.7,351.6
				c-9.2,53.2-15,99.6-22.9,185c-8.7,93-70.8,781.2,7.4,1011c19.4,56.9,30.9,114.5,30.9,114.5c6.4,19.7,23.6,71.5,56.4,143
				c57.4,125.2,118.9,215.8,147.1,255.5c61.2,86.1,116.2,144.3,140.5,169.1c13,13.3,45,45.5,89.1,82.9c64.6,55,120.5,92,156.1,115.5
				c25.4,16.8,57.8,37,64.4,41.1c20,12.5,30,18.7,37.2,22.6c31.6,17,58.2,31.4,87.5,27.7c23.2-2.9,39.3-16,44.2-19.6
				c34.3-25.5,156.4-60.8,458.7-110.7c50.7-26.1,192.8-89.3,322.5-19.2c184.1,99.5,286.6,436.6,176.4,794.8
				c-102.5,120.5-814.1,305.6-814.1,305.6c-95.9,63.2-173.1,79.8-227.7,82.3c-20.6,1-31.9-0.3-144.9,0c-109.7,0.3-106.4,1.6-112.2,0
				c-65.9-17.8-83.1-69.2-204.9-199c-39.3-41.9-29.4-27.9-92.1-92.4c-86.6-89.2-156.2-168.1-182.5-199
				c-60-70.5-187.7-232.2-285.8-443.7c-98.1-211.5-159.7-448.3-195.7-737.9c-16.9-130.8-22.6-598.8-10.3-764.1
				c26.7-361.8,80.6-645.3,145.8-968.7c37.4-185.5,33.2-135.3,95.5-425.6c103.4-481.8,102.8-555.6,175.3-825.2
				c67.5-251.2,81.5-237.5,135.6-460.5c63.4-261.3,69.2-382.7,109.8-605.3c62.2-340.8,99.3-332.6,198.9-746.8
				c74.6-310,158.5-659.1,175.7-1107.6c6.7-175-0.2-274.3,14.8-597.2c8.3-179.2,19.9-352,29-488.1c29.6-441.9,36.1-423,34.9-539.9
				c0,0-5.5-364.7-103.5-630.1c-7.3-19.8-14.3-36.7-20.9-51.9c-29.2-67.3-64.2-129.9-106-191.4
				c-160.8-235.4-398.7-411.9-651.7-484.8c-259.5-74.7-512.5-41.1-642.3,85.9c-66.8,65.4-71.5,80.3-63,191.5l7.5,95.3h42.3
				c23.5-0.9,95.9-6.5,161.7-13.1c204.1-20.6,325.4,13.1,428.8,118.6c97.8,99,127.9,192.4,122.3,380.2l-2.8,112.1l-45.1,92.5
				c-38.6,76.6-58.3,104.6-122.3,168.1c-130.7,129.8-237.9,170-429.8,161.6c-245.4-10.3-402.5-107.4-499.3-310.1
				c-89.3-186.8-113.8-465.2-61.1-709.9c33.9-156.9,104.4-285.8,228.5-416.6c160.8-169.1,345.1-259.7,632.9-312.9
				c272.7-49.5,467.4-14.9,710.9,128c214.4,126.1,395.9,312,531.3,545.5c174.9,302.7,252,681,237.9,1172.3
				c-2.8,108.4,0,221.4,7.5,303.6c3.2,30.5,7.7,75.8,12.2,130.8c15.4,185.5,18.1,384.9,15.8,554c-2.9,211.3-6.2,453.4-35.4,751.8
				c-28.8,294-88.8,703.1-223.6,1186.1c-62.4,307.9-138.8,633.5-232.7,973C2891.2,7631.9,2832.3,7827,2772.1,8013.1z M7333.5,7610.9
				 M7736.9,11500.5 M11846.3,1948.5"/>
		</g>
	</g>
	<g>
		<linearGradient id="SVGID_1_" gradientUnits="userSpaceOnUse" x1="74.177" y1="871.9445" x2="2037.4072" y2="871.9445">
			<stop  offset="0.7" style="stop-color:#000000"/>
			<stop  offset="1" style="stop-color:#FFFFFF"/>
		</linearGradient>
		<rect x="74.2" y="870.5" class="st2" width="1963.2" height="2.8"/>
		
			<linearGradient id="SVGID_00000137098734611825562810000001573425114462716839_" gradientUnits="userSpaceOnUse" x1="74.177" y1="524.7004" x2="2037.4072" y2="524.7004">
			<stop  offset="0.7" style="stop-color:#000000"/>
			<stop  offset="1" style="stop-color:#FFFFFF"/>
		</linearGradient>
		
			<rect x="74.2" y="523.3" style="fill:url(#SVGID_00000137098734611825562810000001573425114462716839_);" width="1963.2" height="2.8"/>
		
			<linearGradient id="SVGID_00000078746638685288661870000002595587180111843722_" gradientUnits="userSpaceOnUse" x1="74.177" y1="698.3224" x2="2037.4072" y2="698.3224">
			<stop  offset="0.7" style="stop-color:#000000"/>
			<stop  offset="1" style="stop-color:#FFFFFF"/>
		</linearGradient>
		
			<rect x="74.2" y="696.9" style="fill:url(#SVGID_00000078746638685288661870000002595587180111843722_);" width="1963.2" height="2.8"/>
		
			<linearGradient id="SVGID_00000093889367935277841800000012935317934962280626_" gradientUnits="userSpaceOnUse" x1="74.177" y1="351.0783" x2="2037.4072" y2="351.0783">
			<stop  offset="0.7" style="stop-color:#000000"/>
			<stop  offset="1" style="stop-color:#FFFFFF"/>
		</linearGradient>
		
			<rect x="74.2" y="349.7" style="fill:url(#SVGID_00000093889367935277841800000012935317934962280626_);" width="1963.2" height="2.8"/>
		
			<linearGradient id="SVGID_00000083785467338877536290000001474699747042573471_" gradientUnits="userSpaceOnUse" x1="74.177" y1="177.4563" x2="2037.4072" y2="177.4563">
			<stop  offset="0.7" style="stop-color:#000000"/>
			<stop  offset="1" style="stop-color:#FFFFFF"/>
		</linearGradient>
		
			<rect x="74.2" y="176" style="fill:url(#SVGID_00000083785467338877536290000001474699747042573471_);" width="1963.2" height="2.8"/>
	</g>
</g>
<g class="st7">
	
		<ellipse transform="matrix(0.9432 -0.3322 0.3322 0.9432 -158.2942 290.1976)" class="st8" cx="769.7" cy="608.1" rx="92.9" ry="74.7"/>
	<line class="st9" x1="681" y1="1071.8" x2="681" y2="624"/>
</g>
<ellipse transform="matrix(0.9432 -0.3322 0.3322 0.9432 -143.9632 374.344)" class="st10" cx="1023" cy="608.3" rx="92.9" ry="74.7"/>
<g>
	<g>
		
			<linearGradient id="SVGID_00000129904287442670177270000014059200597609625514_" gradientUnits="userSpaceOnUse" x1="526.1841" y1="640.4152" x2="3022.1724" y2="640.4152">
			<stop  offset="3.229374e-07" style="stop-color:#C40D1E"/>
			<stop  offset="9.866276e-02" style="stop-color:#C51323"/>
			<stop  offset="0.2271" style="stop-color:#C92332"/>
			<stop  offset="0.372" style="stop-color:#D03E4B"/>
			<stop  offset="0.5291" style="stop-color:#D9636E"/>
			<stop  offset="0.6959" style="stop-color:#E5949B"/>
			<stop  offset="0.8682" style="stop-color:#F3CED1"/>
			<stop  offset="1" style="stop-color:#FFFFFF"/>
		</linearGradient>
		<path style="fill:url(#SVGID_00000129904287442670177270000014059200597609625514_);" d="M758.5,766c-31.3,0-57.2-6-78.3-25.5v45
			c0,37.5,3.4,47,9.5,55c8.8,12.5,36.1,17,49,19V871c-18.4-1-78.3-1.5-103.5-1.5c-22.5,0-77.6,0.5-102.1,1.5v-11.5
			c8.8-1.5,25.9-4.5,35.4-13.5c10.2-10,11.6-23,11.6-77.5v-193c0-47.5-3.4-59-45.6-65V498c15-0.5,64-2.5,95.3-6.5
			c10.2-1,36.1-5,44.9-9l6.8,5l-2.7,33.5c28.6-25,60.6-35,93.3-35c97.3,0,131.4,68.5,131.4,134.5C903.5,703.5,854.5,766,758.5,766z
			 M721.1,523c-7.5,0-25.9,0.5-40.8,9v196.5c15,6,25.9,6,37.4,6c77.6,0,79-83,79-112C796.7,557.5,770.1,523,721.1,523z"/>
		
			<linearGradient id="SVGID_00000183214408226190745670000016515066730018032258_" gradientUnits="userSpaceOnUse" x1="526.1841" y1="640.4152" x2="3022.1724" y2="640.4152">
			<stop  offset="3.229374e-07" style="stop-color:#C40D1E"/>
			<stop  offset="9.866276e-02" style="stop-color:#C51323"/>
			<stop  offset="0.2271" style="stop-color:#C92332"/>
			<stop  offset="0.372" style="stop-color:#D03E4B"/>
			<stop  offset="0.5291" style="stop-color:#D9636E"/>
			<stop  offset="0.6959" style="stop-color:#E5949B"/>
			<stop  offset="0.8682" style="stop-color:#F3CED1"/>
			<stop  offset="1" style="stop-color:#FFFFFF"/>
		</linearGradient>
		<path style="fill:url(#SVGID_00000183214408226190745670000016515066730018032258_);" d="M1105,766.5
			c-111.6,0-164.7-58.5-164.7-138.5c0-46.5,23.8-142,172.2-142c111.6,0,164.7,58.5,164.7,138.5C1277.3,671,1253.4,766.5,1105,766.5z
			 M1108.4,508.5c-41.5,0-59.2,35-59.2,117.5c0,111.5,32.7,118,59.9,118c41.5,0,59.2-35,59.2-117.5
			C1168.3,515,1135.7,508.5,1108.4,508.5z"/>
		
			<linearGradient id="SVGID_00000092437872098855371270000016511909978071450301_" gradientUnits="userSpaceOnUse" x1="526.1841" y1="640.4152" x2="3022.1724" y2="640.4152">
			<stop  offset="3.229374e-07" style="stop-color:#C40D1E"/>
			<stop  offset="9.866276e-02" style="stop-color:#C51323"/>
			<stop  offset="0.2271" style="stop-color:#C92332"/>
			<stop  offset="0.372" style="stop-color:#D03E4B"/>
			<stop  offset="0.5291" style="stop-color:#D9636E"/>
			<stop  offset="0.6959" style="stop-color:#E5949B"/>
			<stop  offset="0.8682" style="stop-color:#F3CED1"/>
			<stop  offset="1" style="stop-color:#FFFFFF"/>
		</linearGradient>
		<path style="fill:url(#SVGID_00000092437872098855371270000016511909978071450301_);" d="M1440.6,763.5c-38.1,0-83-6-94.6-50.5
			c-3.4-13-4.8-25.5-4.8-76.5c0-43,1.4-74.5,2-117.5h-38.1v-14.5c23.8-4.5,55.8-15.5,72.2-30.5c15.7-14.5,27.9-33.5,30.6-54.5h38.8
			c-2.7,28-2,48-3.4,74l94.6-3V521l-94.6-2v155.5c0,33.5,8.8,54,56.5,54c12.9,0,21.8-1,32.7-5l6.8,11
			C1520.3,750.5,1484.9,763.5,1440.6,763.5z"/>
		
			<linearGradient id="SVGID_00000075845985461252968830000014528361187717344911_" gradientUnits="userSpaceOnUse" x1="526.1841" y1="640.4152" x2="3022.1724" y2="640.4152">
			<stop  offset="3.229374e-07" style="stop-color:#C40D1E"/>
			<stop  offset="9.866276e-02" style="stop-color:#C51323"/>
			<stop  offset="0.2271" style="stop-color:#C92332"/>
			<stop  offset="0.372" style="stop-color:#D03E4B"/>
			<stop  offset="0.5291" style="stop-color:#D9636E"/>
			<stop  offset="0.6959" style="stop-color:#E5949B"/>
			<stop  offset="0.8682" style="stop-color:#F3CED1"/>
			<stop  offset="1" style="stop-color:#FFFFFF"/>
		</linearGradient>
		<path style="fill:url(#SVGID_00000075845985461252968830000014528361187717344911_);" d="M1624.4,758.5c-14.3,0-69.4,0.5-96,1.5
			v-11.5c8.8-1.5,25.9-4.5,35.4-13.5c10.2-10,11.6-23,11.6-77.5v-82c0-47.5-3.4-59-45.6-65V498c15-0.5,64-2.5,95.3-6.5
			c10.2-1,38.1-5,47-9l7.5,5c-4.1,42-4.1,131.5-4.1,158v30c0,38,2,47,8.2,55c8.8,12.5,28.6,16,40.8,18V760
			C1706.1,759,1650.3,758.5,1624.4,758.5z M1623.7,462.5c-39.5,0-56.5-19-56.5-40.5c0-23.5,17-42,57.2-42
			c39.5,0,57.2,18.5,57.2,41.5C1681.6,443.5,1663.9,462.5,1623.7,462.5z"/>
		
			<linearGradient id="SVGID_00000000190064428264757880000013356771709476442288_" gradientUnits="userSpaceOnUse" x1="526.1841" y1="640.4152" x2="3022.1724" y2="640.4152">
			<stop  offset="3.229374e-07" style="stop-color:#C40D1E"/>
			<stop  offset="9.866276e-02" style="stop-color:#C51323"/>
			<stop  offset="0.2271" style="stop-color:#C92332"/>
			<stop  offset="0.372" style="stop-color:#D03E4B"/>
			<stop  offset="0.5291" style="stop-color:#D9636E"/>
			<stop  offset="0.6959" style="stop-color:#E5949B"/>
			<stop  offset="0.8682" style="stop-color:#F3CED1"/>
			<stop  offset="1" style="stop-color:#FFFFFF"/>
		</linearGradient>
		<path style="fill:url(#SVGID_00000000190064428264757880000013356771709476442288_);" d="M2047.8,514c-4.8,5-8.8,10-18.4,30.5
			L1932.1,761h-82.4l-90.5-216c-4.1-10-7.5-18.5-12.3-25.5c-6.1-8.5-10.2-14-28.6-18v-11c19.1,1,69.4,1.5,87.1,1.5
			c19.1,0,68.1-0.5,87.1-1.5v11c-13.6,2.5-19.7,4.5-25.2,9c-2.7,2.5-5.4,7-5.4,11.5c0,9,2.7,17,9.5,34l36.8,94.5
			c8.8,23.5,12.3,36.5,13.6,43.5c4.8-14,12.9-35.5,15-42l36.1-99.5c5.4-15.5,8.2-22.5,8.2-30.5c0-4.5-2-8-5.4-11.5
			c-3.4-3-11.6-6.5-23.1-9v-11c18.4,1,39.5,1.5,58.5,1.5s42.9-0.5,61.9-1.5v11C2062.1,503,2054,507.5,2047.8,514z"/>
		
			<linearGradient id="SVGID_00000174563068431156527760000005817574960722381190_" gradientUnits="userSpaceOnUse" x1="526.1841" y1="640.4152" x2="3022.1724" y2="640.4152">
			<stop  offset="3.229374e-07" style="stop-color:#C40D1E"/>
			<stop  offset="9.866276e-02" style="stop-color:#C51323"/>
			<stop  offset="0.2271" style="stop-color:#C92332"/>
			<stop  offset="0.372" style="stop-color:#D03E4B"/>
			<stop  offset="0.5291" style="stop-color:#D9636E"/>
			<stop  offset="0.6959" style="stop-color:#E5949B"/>
			<stop  offset="0.8682" style="stop-color:#F3CED1"/>
			<stop  offset="1" style="stop-color:#FFFFFF"/>
		</linearGradient>
		<path style="fill:url(#SVGID_00000174563068431156527760000005817574960722381190_);" d="M2179.2,607.5c0,3,0,2.5,0,2.5
			c0,45.5,6.8,114.5,102.1,114.5c36.8,0,62.6-8,66-10.5l7.5,9.5c-25.2,21.5-66.7,40-119.8,40c-55.1,0-162-15-162-134.5
			c0-76,55.1-143,160-143c69.4,0,99.4,30.5,107.6,40.5c15.7,19,23.8,45.5,23.8,75v6H2179.2z M2267.7,574c0-37-2.7-66.5-38.8-66.5
			c-47.7,0-49,50-49.7,82.5l88.5-11.5V574z"/>
		
			<linearGradient id="SVGID_00000122710058376896289930000003848740560706916527_" gradientUnits="userSpaceOnUse" x1="526.1841" y1="640.4152" x2="3022.1724" y2="640.4152">
			<stop  offset="3.229374e-07" style="stop-color:#C40D1E"/>
			<stop  offset="9.866276e-02" style="stop-color:#C51323"/>
			<stop  offset="0.2271" style="stop-color:#C92332"/>
			<stop  offset="0.372" style="stop-color:#D03E4B"/>
			<stop  offset="0.5291" style="stop-color:#D9636E"/>
			<stop  offset="0.6959" style="stop-color:#E5949B"/>
			<stop  offset="0.8682" style="stop-color:#F3CED1"/>
			<stop  offset="1" style="stop-color:#FFFFFF"/>
		</linearGradient>
		<path style="fill:url(#SVGID_00000122710058376896289930000003848740560706916527_);" d="M2695.2,511c-11.6,9.5-15,21.5-25.2,45
			l-84.4,200c-12.9,31-30.6,66.5-44.2,82c-17,19.5-40.2,33-84.4,33c-19.7,0-78.3-2-78.3-40.5c0-11,5.4-36,46.3-36
			c30.6,0,44.2,16,44.2,31c0,9.5-4.8,19-17,25.5h6.1c33.4,0,46.3-36.5,57.2-55l2.7-4.5l-114.4-246c-2-3.5-12.3-24.5-16.3-30
			c-5.4-7-10.2-11.5-25.2-14v-11c18.4,1,76.9,1.5,94.6,1.5c19.1,0,58.5-0.5,77.6-1.5v11c-13.6,3-19.7,5-24.5,9.5
			c-3.4,2.5-5.4,7-5.4,12c0,10,4.1,20,10.2,33.5l35.4,78.5c6.1,13.5,14.3,29,19.7,49.5l46.3-130c5.4-15.5,7.5-24,7.5-31.5
			c0-5-2.7-9.5-6.1-12.5c-3.4-3.5-10.9-6-23.1-9v-11c18.4,1,35.4,1.5,53.8,1.5c19.1,0,49.7-0.5,68.1-1.5v11
			C2707.4,503,2700.6,506.5,2695.2,511z"/>
	</g>
	<rect x="531.2" y="371" class="st18" width="2229.3" height="391.8"/>
	<text transform="matrix(1.3615 0 0 1 531.1844 759.5408)" class="st19 st20 st21">potivey</text>
</g>
</svg>
