<svg id="Ebene_1" data-name="Ebene 1" xmlns="http://www.w3.org/2000/svg" viewBox="0 0 1457.65 399.73"><defs><style>.cls-1,.cls-11,.cls-16,.cls-4{fill:none;}.cls-1{stroke:#878787;stroke-dasharray:0 0 12.12 12.12;}.cls-1,.cls-11,.cls-13,.cls-16,.cls-19,.cls-4,.cls-8{stroke-miterlimit:10;}.cls-2{fill:#e3e3e2;}.cls-3{fill:#c7c6c6;}.cls-16,.cls-19,.cls-4{stroke:#1e1e1c;}.cls-10,.cls-15,.cls-21,.cls-22,.cls-23,.cls-25,.cls-26,.cls-5,.cls-6{isolation:isolate;}.cls-15,.cls-22,.cls-23,.cls-6{font-size:16px;}.cls-10,.cls-15,.cls-21,.cls-22,.cls-23,.cls-25,.cls-26,.cls-6,.cls-9{fill:#1e1e1c;}.cls-10,.cls-15,.cls-21,.cls-25,.cls-26,.cls-6{font-family:Tinos-Regular, Tinos;}.cls-7{letter-spacing:-0.02em;}.cls-19,.cls-20,.cls-8{fill:#fff;}.cls-11,.cls-13,.cls-8{stroke:#010101;}.cls-11,.cls-13,.cls-16,.cls-19,.cls-8{stroke-width:2px;}.cls-10{font-size:14px;}.cls-12{fill:#010101;}.cls-13{fill:#eeeded;}.cls-14{letter-spacing:-0.06em;}.cls-15,.cls-22{letter-spacing:-0.06em;}.cls-17{fill:#c09295;}.cls-18{fill:#efb7bb;}.cls-21{font-size:19.31px;}.cls-24{fill:#1d1d1b;}.cls-25{font-size:15px;}.cls-26{font-size:12.8px;}</style></defs><path class="cls-1" d="M856.13,384.09h218.4a36.84,36.84,0,0,0,36.84-36.84V220.92a36.84,36.84,0,0,0-36.84-36.84H856.13a36.84,36.84,0,0,0-36.84,36.84V347.25a36.84,36.84,0,0,0,36.84,36.84Z" transform="translate(-0.54 -24.23)"/><rect class="cls-2" x="1206.72" y="128.67" width="159.26" height="212.48" rx="20.06"/><path class="cls-3" d="M1207.26,345.31c0,11.08,7.76,20.06,17.34,20.06h124.59c9.57,0,17.34-9,17.34-20.06V334.64H1207.27v10.67Z" transform="translate(-0.54 -24.23)"/><line class="cls-4" x1="1206.72" y1="309.69" x2="1365.98" y2="309.69"/><g class="cls-5"><text class="cls-6" transform="translate(1265.72 329.78)">E<tspan class="cls-7" x="9.77" y="0">r</tspan><tspan x="14.81" y="0">gebnis</tspan></text></g><rect class="cls-8" x="1238.57" y="180.21" width="77.2" height="109.18"/><rect class="cls-8" x="1247.76" y="171.02" width="77.2" height="109.18"/><rect class="cls-8" x="1256.95" y="161.83" width="77.2" height="109.18"/><polygon class="cls-8" points="1326.5 175.27 1318.74 161.97 1334.14 161.9 1334.14 161.83 1256.95 161.83 1256.95 271.01 1334.14 271.01 1334.14 188.37 1326.5 175.27"/><path class="cls-9" d="M1289.92,243.2v3h-.72v-3h-3v-.71h3v-3h.72v3h3v.71Z" transform="translate(-0.54 -24.23)"/><path class="cls-2" d="M360.59,24.23H216.41a20.06,20.06,0,0,0-20.06,20.06V156.6H380.66V44.29A20.06,20.06,0,0,0,360.6,24.23Z" transform="translate(-0.54 -24.23)"/><path class="cls-3" d="M196.34,166.27a20.06,20.06,0,0,0,20.06,20.06H360.59a20.06,20.06,0,0,0,20.06-20.06V155.6H196.34Z" transform="translate(-0.54 -24.23)"/><line class="cls-4" x1="195.8" y1="131.37" x2="380.12" y2="131.37"/><rect class="cls-8" x="285.84" y="42.23" width="55.61" height="78.65"/><rect class="cls-8" x="292.46" y="35.61" width="55.61" height="78.65"/><rect class="cls-8" x="299.08" y="28.99" width="55.61" height="78.65"/><polygon class="cls-8" points="349.19 38.67 343.6 29.09 354.69 29.04 354.69 28.99 299.08 28.99 299.08 107.64 354.69 107.64 354.69 48.11 349.19 38.67"/><g class="cls-5"><text class="cls-10" transform="translate(303.81 57.76) scale(1.01 1)">Spotify-<tspan x="0" y="16.8">Daten</tspan></text></g><polyline class="cls-11" points="181.45 259.85 170.04 259.85 170.04 166.36 116.36 166.36 170.04 166.36 170.04 74.48 181.45 74.48"/><polygon class="cls-12" points="178.53 249.88 195.8 259.85 178.53 269.83 178.53 249.88"/><polygon class="cls-12" points="178.53 84.45 195.8 74.48 178.53 64.51 178.53 84.45"/><path class="cls-13" d="M71.87,158.81A31.66,31.66,0,0,0,40.1,190.36h0v.12a31.77,31.77,0,0,1,31.77-31.66Z" transform="translate(-0.54 -24.23)"/><path class="cls-13" d="M103.66,190.36a31.67,31.67,0,0,0-31.78-31.55,31.79,31.79,0,0,1,31.78,31.66v-.12h0Z" transform="translate(-0.54 -24.23)"/><path class="cls-13" d="M95,209.34a19.29,19.29,0,0,0-19.36-19.22H68.11a19.29,19.29,0,0,0-19.36,19.22V212a31.31,31.31,0,0,1-8.66-21.52v.11h0a31.78,31.78,0,0,0,31.78,31.78h0a31.78,31.78,0,0,0,31.78-31.78h0v-.11A31.31,31.31,0,0,1,95,212Z" transform="translate(-0.54 -24.23)"/><path class="cls-13" d="M62.85,177h0a8.52,8.52,0,0,0,8.56,8.49h.94A8.52,8.52,0,0,0,80.91,177h0a8.52,8.52,0,0,0-8.56-8.49h-.94A8.52,8.52,0,0,0,62.85,177Z" transform="translate(-0.54 -24.23)"/><path class="cls-2" d="M360.59,211.34H216.41a20.06,20.06,0,0,0-20.06,20.06V343.71H380.66V231.4a20.06,20.06,0,0,0-20.06-20.06Z" transform="translate(-0.54 -24.23)"/><path class="cls-3" d="M196.34,351.84A20.06,20.06,0,0,0,216.4,371.9H360.59a20.06,20.06,0,0,0,20.06-20.06V341.17H196.34Z" transform="translate(-0.54 -24.23)"/><line class="cls-4" x1="195.8" y1="316.79" x2="380.12" y2="316.79"/><g class="cls-5"><text class="cls-6" transform="translate(221.84 336.01)">Umfrage<tspan class="cls-14" x="56.86" y="0"> </tspan><tspan x="59.98" y="0">Anwendung </tspan></text><text class="cls-15" transform="translate(267.17 336.01)"> </text></g><g class="cls-5"><text class="cls-6" transform="translate(263.38 151.71)">Spotify </text><text class="cls-5" x="-0.54" y="-24.23"/></g><rect class="cls-8" x="285.84" y="225.98" width="55.61" height="78.65"/><rect class="cls-8" x="292.46" y="219.36" width="55.61" height="78.65"/><rect class="cls-8" x="299.08" y="212.74" width="55.61" height="78.65"/><polygon class="cls-8" points="349.19 222.42 343.6 212.84 354.69 212.79 354.69 212.74 299.08 212.74 299.08 291.39 354.69 291.39 354.69 231.85 349.19 222.42"/><polyline class="cls-16" points="394.47 74.94 630.12 74.94 630.12 187.8"/><polygon class="cls-9" points="397.39 84.91 380.12 74.94 397.39 64.96 397.39 84.91"/><path class="cls-17" d="M514.84,351.37a20.06,20.06,0,0,0,20.06,20.06H719a20.06,20.06,0,0,0,20.06-20.06V340.62H514.83v10.75Z" transform="translate(-0.54 -24.23)"/><path class="cls-18" d="M528.94,371a19.9,19.9,0,0,0,3.48.73A20.1,20.1,0,0,1,528.94,371Z" transform="translate(-0.54 -24.23)"/><path class="cls-18" d="M525.34,369.48l.52.25Z" transform="translate(-0.54 -24.23)"/><path class="cls-18" d="M515.74,357.81s0,.09,0,.13A.69.69,0,0,0,515.74,357.81Z" transform="translate(-0.54 -24.23)"/><polygon class="cls-18" points="514.3 327.62 514.3 327.61 514.3 327.61 514.3 327.62"/><path class="cls-18" d="M515.25,355.88l0,.14S515.26,355.92,515.25,355.88Z" transform="translate(-0.54 -24.23)"/><path class="cls-18" d="M517.26,361.4l0,.06Z" transform="translate(-0.54 -24.23)"/><path class="cls-18" d="M523.68,368.48c.48.33,1,.62,1.5.91C524.67,369.11,524.17,368.81,523.68,368.48Z" transform="translate(-0.54 -24.23)"/><path class="cls-18" d="M514.84,351.85a19.82,19.82,0,0,0,.41,4A19.82,19.82,0,0,1,514.84,351.85Z" transform="translate(-0.54 -24.23)"/><path class="cls-18" d="M515.79,357.94a20.44,20.44,0,0,0,1.47,3.46A19.54,19.54,0,0,1,515.79,357.94Z" transform="translate(-0.54 -24.23)"/><path class="cls-18" d="M515.28,356c.13.6.28,1.2.46,1.78C515.56,357.23,515.41,356.63,515.28,356Z" transform="translate(-0.54 -24.23)"/><path class="cls-18" d="M719,212H534.9a20.06,20.06,0,0,0-20.06,20.06V351.84h0V341.09H739.11v-109A20.06,20.06,0,0,0,719.05,212Z" transform="translate(-0.54 -24.23)"/><path class="cls-18" d="M523.68,368.48a20.12,20.12,0,0,1-6.39-7A20.12,20.12,0,0,0,523.68,368.48Z" transform="translate(-0.54 -24.23)"/><path class="cls-18" d="M525.18,369.38l.16.1Z" transform="translate(-0.54 -24.23)"/><path class="cls-18" d="M525.86,369.73a19.75,19.75,0,0,0,3.08,1.27A19.75,19.75,0,0,1,525.86,369.73Z" transform="translate(-0.54 -24.23)"/><path class="cls-18" d="M532.41,371.73a20.41,20.41,0,0,0,2.49.17A20.55,20.55,0,0,1,532.41,371.73Z" transform="translate(-0.54 -24.23)"/><line class="cls-4" x1="514.3" y1="316.86" x2="738.57" y2="316.86"/><g class="cls-5"><text class="cls-6" transform="translate(597.2 336.01)">Spotivey</text></g><rect class="cls-19" x="552.04" y="209.73" width="153.36" height="89.3" rx="7.85"/><line class="cls-16" x1="557.15" y1="233.8" x2="700.29" y2="233.8"/><circle class="cls-16" cx="681.58" cy="224.66" r="4.27"/><circle class="cls-16" cx="696.02" cy="224.66" r="4.27"/><circle class="cls-16" cx="667.13" cy="224.66" r="4.27"/><rect class="cls-4" x="570.34" y="241.25" width="30.67" height="20.45" rx="5.01"/><rect class="cls-4" x="570.34" y="271.92" width="30.67" height="20.45" rx="5.01"/><rect class="cls-4" x="613.39" y="241.25" width="30.67" height="20.45" rx="5.01"/><rect class="cls-4" x="656.44" y="241.25" width="30.67" height="20.45" rx="5.01"/><rect class="cls-4" x="613.39" y="271.92" width="30.67" height="20.45" rx="5.01"/><rect class="cls-4" x="656.44" y="271.92" width="30.67" height="20.45" rx="5.01"/><rect class="cls-9" x="543.08" y="299.03" width="171.28" height="8.61" rx="3.13"/><rect class="cls-20" x="622.59" y="302.25" width="12.27" height="2.17" rx="1.03"/><line class="cls-16" x1="380.12" y1="258.68" x2="499.95" y2="258.68"/><polygon class="cls-9" points="497.03 268.66 514.3 258.68 497.03 248.71 497.03 268.66"/><g class="cls-5"><text class="cls-21" transform="translate(431.79 249.6) scale(0.83 1)">ID</text></g><line class="cls-16" x1="738.57" y1="258.69" x2="858.4" y2="258.69"/><polygon class="cls-9" points="855.48 268.66 872.75 258.69 855.48 248.71 855.48 268.66"/><g class="cls-5"><text class="cls-6" transform="translate(795.22 228.93)">ID</text><text class="cls-6" transform="translate(758.34 248.13)">Spotify - Daten</text></g><path class="cls-2" d="M1040.24,203.8H896.05A20.06,20.06,0,0,0,876,223.86V336.17H1060.3V223.86a20.06,20.06,0,0,0-20.06-20.06Z" transform="translate(-0.54 -24.23)"/><path class="cls-3" d="M876,344.3a20.06,20.06,0,0,0,20.06,20.06h144.19a20.06,20.06,0,0,0,20.06-20.06V333.63H876Z" transform="translate(-0.54 -24.23)"/><g class="cls-5"><text class="cls-6" transform="translate(902.26 329.78)">Umfrage<tspan class="cls-14" x="56.86" y="0"> </tspan><tspan x="59.98" y="0">Anwendung</tspan></text><text class="cls-22" transform="translate(947.59 329.78)"> </text></g><line class="cls-4" x1="875.45" y1="309.25" x2="1059.76" y2="309.25"/><rect class="cls-8" x="965.49" y="218.44" width="55.61" height="78.65"/><rect class="cls-8" x="972.11" y="211.82" width="55.61" height="78.65"/><rect class="cls-8" x="978.73" y="205.2" width="55.61" height="78.65"/><polygon class="cls-8" points="1028.84 214.88 1023.25 205.3 1034.34 205.25 1034.34 205.2 978.73 205.2 978.73 283.85 1034.34 283.85 1034.34 224.32 1028.84 214.88"/><polyline class="cls-16" points="1059.76 258.69 1131.31 258.69 1131.31 258.69 1190.96 258.69"/><polygon class="cls-9" points="1188.04 268.66 1205.31 258.69 1188.04 248.71 1188.04 268.66"/><g class="cls-5"><text class="cls-23" transform="translate(91.68 135.21)">*</text></g><line class="cls-4" y1="362.26" x2="1457.65" y2="362.26"/><g class="cls-5"><text class="cls-23" transform="translate(55.44 394.87)">* <tspan class="cls-24" x="12" y="0">Proband*innen mit einzigartiger ID</tspan></text></g><g class="cls-5"><text class="cls-25" transform="translate(941.68 150.81)">optional</text></g><text x="-0.54" y="-24.23"/><g class="cls-5"><text class="cls-26" transform="translate(301.38 241.29) scale(1.01 1)">Umfrage-<tspan x="0" y="15.36">Daten</tspan></text></g><g class="cls-5"><text class="cls-26" transform="translate(981.26 241.29) scale(1.01 1)">Umfrage-<tspan x="0" y="15.36">Daten</tspan></text></g><g class="cls-5"><text class="cls-26" transform="translate(1267.24 245.59) scale(1.01 1)">Umfrage-<tspan x="0" y="15.36">Daten</tspan></text></g><g class="cls-5"><text class="cls-26" transform="translate(1267.24 187.44) scale(1.01 1)">Spotify-<tspan x="0" y="15.36">Daten</tspan></text></g></svg>